{
.appVersion = "3058";
.formatVersion = 3;
DisplayStrings = (
f,
g,
a,
h,
i,
j,
k,
"0",
q,
D
);
customParameters = (
{
name = licenses;
value = "SIL Open Font License (OFL-1.1)";
},
{
name = licenseURL;
value = "http://scripts.sil.org/OFL";
}
);
date = "2021-06-11 15:09:22 +0000";
familyName = "Shinkai Mono";
fontMaster = (
{
id = m01;
metricValues = (
{
over = 16;
pos = 800;
},
{
over = 16;
pos = 700;
},
{
over = 16;
pos = 500;
},
{
over = -16;
},
{
over = -16;
pos = -200;
}
);
name = Regular;
}
);
glyphs = (
{
glyphname = A;
lastChange = "2021-06-21 08:20:43 +0000";
layers = (
{
layerId = m01;
shapes = (
{
closed = 1;
nodes = (
(58,70,l),
(38,70,l),
(36,0,l),
(143,0,l),
(142,70,l),
(126,70,l),
(161,236,l),
(335,236,l),
(369,70,l),
(356,70,l),
(356,0,l),
(464,0,l),
(462,70,l),
(442,70,l),
(301,710,l),
(198,710,l)
);
},
{
closed = 1;
nodes = (
(250,636,l),
(319,309,l),
(178,309,l)
);
}
);
userData = {
com.schriftgestaltung.Glyphs.lastChange = "2021-06-18 11:48:42 +0000";
};
width = 500;
}
);
unicode = 65;
},
{
glyphname = B;
lastChange = "2021-06-21 08:13:57 +0000";
layers = (
{
layerId = m01;
shapes = (
{
closed = 1;
nodes = (
(65,700,l),
(65,630,l),
(92,630,l),
(92,70,l),
(65,70,l),
(65,0,l),
(204,0,ls),
(343,0,o),
(448,77,o),
(448,188,cs),
(448,274,o),
(401,340,o),
(338,364,c),
(382,393,o),
(416,443,o),
(415,510,cs),
(414,628,o),
(343,700,o),
(199,700,cs)
);
},
{
closed = 1;
nodes = (
(162,324,l),
(211,324,ls),
(288,324,o),
(378,296,o),
(378,188,cs),
(378,118,o),
(311,70,o),
(204,70,cs),
(162,70,l)
);
},
{
closed = 1;
nodes = (
(162,630,l),
(199,630,ls),
(291,630,o),
(345,584,o),
(345,510,cs),
(345,418,o),
(274,394,o),
(211,394,cs),
(162,394,l)
);
}
);
userData = {
com.schriftgestaltung.Glyphs.lastChange = "2021-06-18 11:48:50 +0000";
};
width = 500;
}
);
unicode = 66;
},
{
glyphname = C;
lastChange = "2021-06-21 08:13:21 +0000";
layers = (
{
layerId = m01;
shapes = (
{
closed = 1;
nodes = (
(113,566,o),
(164,632,o),
(245,632,cs),
(300,632,o),
(344,599,o),
(365,503,c),
(436,518,l),
(422,623,l),
(399,620,l),
(368,673,o),
(319,702,o),
(245,702,cs),
(89,702,o),
(43,573,o),
(43,350,cs),
(43,127,o),
(89,-2,o),
(245,-2,cs),
(319,-2,o),
(368,27,o),
(399,80,c),
(422,77,l),
(436,182,l),
(365,197,l),
(344,101,o),
(300,68,o),
(245,68,cs),
(164,68,o),
(113,134,o),
(113,350,cs)
);
}
);
width = 501;
}
);
unicode = 67;
},
{
glyphname = D;
lastChange = "2021-06-21 08:38:43 +0000";
layers = (
{
layerId = m01;
shapes = (
{
closed = 1;
nodes = (
(364,-4,o),
(452,129,o),
(452,350,cs),
(452,592,o),
(329,704,o),
(216,704,cs),
(63,704,l),
(63,633,l),
(88,633,l),
(88,67,l),
(63,67,l),
(63,-4,l),
(213,-4,ls)
);
},
{
closed = 1;
nodes = (
(158,633,l),
(216,633,ls),
(290,633,o),
(380,547,o),
(380,350,cs),
(380,183,o),
(312,67,o),
(216,67,cs),
(158,67,l)
);
}
);
userData = {
com.schriftgestaltung.Glyphs.lastChange = "2021-06-18 01:56:06 +0000";
};
width = 500;
}
);
unicode = 68;
},
{
glyphname = E;
layers = (
{
layerId = m01;
shapes = (
{
closed = 1;
nodes = (
(438,69,l),
(438,146,l),
(368,146,l),
(368,69,l),
(171,70,l),
(171,324,l),
(306,324,l),
(369,323,l),
(369,395,l),
(306,394,l),
(171,394,l),
(171,631,l),
(368,631,l),
(368,565,l),
(438,565,l),
(438,631,l),
(437,700,l),
(80,701,l),
(80,631,l),
(101,631,l),
(101,70,l),
(79,70,l),
(78,0,l),
(437,0,l)
);
}
);
width = 500;
}
);
unicode = 69;
},
{
glyphname = F;
layers = (
{
layerId = m01;
shapes = (
{
closed = 1;
nodes = (
(171,71,l),
(171,324,l),
(313,324,l),
(376,323,l),
(376,395,l),
(313,394,l),
(171,394,l),
(171,631,l),
(375,631,l),
(375,565,l),
(445,565,l),
(445,631,l),
(444,700,l),
(80,701,l),
(80,631,l),
(101,631,l),
(101,71,l),
(81,71,l),
(81,1,l),
(203,1,l),
(203,71,l)
);
}
);
width = 500;
}
);
unicode = 70;
},
{
glyphname = G;
lastChange = "2021-06-21 08:20:11 +0000";
layers = (
{
layerId = m01;
shapes = (
{
closed = 1;
nodes = (
(113,566,o),
(164,632,o),
(245,632,cs),
(300,632,o),
(344,599,o),
(365,503,c),
(436,518,l),
(422,623,l),
(399,620,l),
(368,673,o),
(319,702,o),
(245,702,cs),
(89,702,o),
(43,573,o),
(43,350,cs),
(43,127,o),
(89,-5,o),
(245,-2,cs),
(340,0,o),
(399,45,o),
(423,149,c),
(353,149,l),
(328,95,o),
(297,68,o),
(245,68,cs),
(164,68,o),
(113,134,o),
(113,350,cs)
);
},
{
closed = 1;
nodes = (
(271,299,l),
(446,299,l),
(446,369,l),
(271,369,l)
);
},
{
closed = 1;
nodes = (
(353,149,l),
(423,149,l),
(423,314,l),
(353,314,l)
);
}
);
width = 500;
}
);
unicode = 71;
},
{
glyphname = H;
layers = (
{
layerId = m01;
shapes = (
{
closed = 1;
nodes = (
(50,700,l),
(50,630,l),
(71,630,l),
(71,70,l),
(50,70,l),
(50,0,l),
(161,0,l),
(161,70,l),
(141,70,l),
(141,321,l),
(359,320,l),
(359,70,l),
(339,70,l),
(339,0,l),
(450,0,l),
(450,70,l),
(429,70,l),
(429,630,l),
(450,630,l),
(450,700,l),
(339,700,l),
(339,630,l),
(359,630,l),
(359,390,l),
(141,391,l),
(141,630,l),
(161,630,l),
(161,700,l)
);
}
);
width = 500;
}
);
unicode = 72;
},
{
glyphname = I;
layers = (
{
layerId = m01;
shapes = (
{
closed = 1;
nodes = (
(125,701,l),
(125,632,l),
(215,631.64,l),
(215,69,l),
(125,69,l),
(125,0,l),
(375,-1,l),
(375,69,l),
(285,69,l),
(285,631.36,l),
(375,631,l),
(375,700,l)
);
}
);
userData = {
com.schriftgestaltung.Glyphs.lastChange = "2021-06-18 06:10:03 +0000";
};
width = 500;
}
);
unicode = 73;
},
{
glyphname = J;
lastChange = "2021-06-21 08:21:11 +0000";
layers = (
{
layerId = m01;
shapes = (
{
closed = 1;
nodes = (
(411,632,l),
(163,633,l),
(163,703,l),
(411,702,l)
);
},
{
closed = 1;
nodes = (
(68,46,l),
(98,-6,o),
(142,-65,o),
(193,-64,cs),
(270,-63,o),
(285,-4,o),
(285,121,cs),
(285,655,l),
(355,655,l),
(356,121,ls),
(356,12,o),
(353,-133,o),
(193,-133,cs),
(105,-133,o),
(39,-58,o),
(10,7,c)
);
}
);
width = 500;
}
);
unicode = 74;
},
{
glyphname = K;
layers = (
{
layerId = m01;
shapes = (
{
closed = 1;
nodes = (
(83,700,l),
(83,635,l),
(106,635,l),
(106,70,l),
(83,70,l),
(83,0,l),
(200,0,l),
(200,70,l),
(176,70,l),
(176,243.438,l),
(233.276,332.932,l),
(362.041,70,l),
(339,70,l),
(339,0,l),
(462,0,l),
(462,70,l),
(439.097,70,l),
(279.598,405.31,l),
(426.6,635,l),
(449,635,l),
(449,700,l),
(323,700,l),
(323,635,l),
(346.724,635,l),
(176,362.967,l),
(176,635,l),
(200,635,l),
(200,700,l)
);
}
);
width = 500;
}
);
unicode = 75;
},
{
glyphname = L;
layers = (
{
layerId = m01;
shapes = (
{
closed = 1;
nodes = (
(95,700,l),
(95,630,l),
(118.5,630,l),
(115,69,l),
(95,69,l),
(95,-1,l),
(451,-1,l),
(452,110,l),
(381,110,l),
(381,67,l),
(185,68,l),
(188.5,630,l),
(226,630,l),
(226,700,l)
);
}
);
width = 500;
}
);
unicode = 76;
},
{
glyphname = M;
layers = (
{
layerId = m01;
shapes = (
{
closed = 1;
nodes = (
(46,699,l),
(46,629,l),
(62.9,629,l),
(54,70,l),
(35,70,l),
(35,0,l),
(155,0,l),
(155,70,l),
(122,70,l),
(126.671,495.236,l),
(216,185,l),
(288,185,l),
(375.075,491.55,l),
(379,70,l),
(347,70,l),
(347,0,l),
(465,0,l),
(465,70,l),
(447,70,l),
(439,629,l),
(456,629,l),
(456,699,l),
(358,699,l),
(252.111,298.801,l),
(147,699,l)
);
}
);
width = 500;
}
);
unicode = 77;
},
{
glyphname = N;
layers = (
{
layerId = m01;
shapes = (
{
closed = 1;
nodes = (
(62,699,l),
(62,629,l),
(80,629,l),
(80,69,l),
(62,69,l),
(62,-1,l),
(182,-1,l),
(182,69,l),
(149.7,69,l),
(147.503,581.565,l),
(364.8,185.955,l),
(364.304,70,l),
(338,70,l),
(338,0,l),
(364.004,0,l),
(364,-1,l),
(434,-1,l),
(434,0,l),
(452,0,l),
(452,70,l),
(434,70,l),
(434,630,l),
(452,630,l),
(452,700,l),
(338,700,l),
(338,630,l),
(366.7,630,l),
(365.424,331.858,l),
(164,699,l)
);
}
);
width = 500;
}
);
unicode = 78;
},
{
glyphname = O;
layers = (
{
layerId = m01;
shapes = (
{
closed = 1;
nodes = (
(401,704,o),
(447,575,o),
(447,350,cs),
(447,150,o),
(412,-4,o),
(245,-4,cs),
(78,-4,o),
(43,150,o),
(43,350,cs),
(43,575,o),
(89,704,o),
(245,704,cs)
);
},
{
closed = 1;
nodes = (
(113,137,o),
(164,68,o),
(245,67,cs),
(326,68,o),
(378,137,o),
(378,350,cs),
(378,568,o),
(323,634,o),
(245,634,cs),
(164,634,o),
(113,568,o),
(113,350,cs)
);
}
);
width = 500;
}
);
unicode = 79;
},
{
glyphname = P;
layers = (
{
layerId = m01;
shapes = (
{
closed = 1;
nodes = (
(74,700,l),
(74,630,l),
(97,630,l),
(97,70,l),
(78,70,l),
(78,0,l),
(192,0,l),
(192,70,l),
(167,70,l),
(167,302,l),
(227,302,ls),
(339,302,o),
(427,381,o),
(426,502,cs),
(425,616,o),
(371,700,o),
(222,700,cs)
);
},
{
closed = 1;
nodes = (
(167,630,l),
(222,630,ls),
(318,630,o),
(356,566,o),
(356,502,cs),
(356,409,o),
(285,372,o),
(222,372,cs),
(167,372,l)
);
},
{
closed = 0;
nodes = (
(-128,324,l)
);
}
);
width = 466;
}
);
unicode = 80;
},
{
glyphname = Q;
layers = (
{
layerId = m01;
shapes = (
{
closed = 1;
nodes = (
(107,-96,l),
(415,-96,l),
(422,18,l),
(361,18,l),
(356.28,-35.335,l),
(203.622,-36.268,l),
(214.176,-28.567,o),
(223.819,-20.236,o),
(232,-11,cs),
(253.26,12.713,o),
(271.846,31.077,o),
(292.677,71.429,c),
(423.123,93.831,o),
(452,223.502,o),
(452,387,cs),
(452,590,o),
(406,706,o),
(250,706,cs),
(94,706,o),
(48,590,o),
(48,387,cs),
(48,220.937,o),
(77.79,89.771,o),
(213.538,70.454,c),
(182.047,24.585,o),
(150.199,-4.299,o),
(84,-37,c)
);
},
{
closed = 1;
nodes = (
(118,583,o),
(169,637,o),
(250,637,cs),
(328,637,o),
(383,583,o),
(383,387,cs),
(383,195,o),
(331,139,o),
(250,138,cs),
(169,139,o),
(118,195,o),
(118,387,cs)
);
}
);
width = 500;
}
);
unicode = 81;
},
{
glyphname = R;
layers = (
{
layerId = m01;
shapes = (
{
closed = 1;
nodes = (
(69,708,l),
(69,638,l),
(93,638,l),
(93,62,l),
(73,62,l),
(73,-10,l),
(187,-10,l),
(187,62,l),
(163,62,l),
(163,314,l),
(227,314,l),
(240.695,314.285,l),
(350.905,65,l),
(331,65,l),
(331,-7,l),
(447,-7,l),
(447,65,l),
(427.905,65,l),
(312.049,327.056,l),
(399.119,357.077,o),
(436.781,435.072,o),
(436,521,cs),
(435,636,o),
(352,708,o),
(210,708,cs)
);
},
{
closed = 1;
nodes = (
(163,638,l),
(210,638,ls),
(309,638,o),
(366,587,o),
(366,521,cs),
(366,439,o),
(310,384,o),
(222,384,cs),
(163,384,l)
);
}
);
width = 500;
}
);
unicode = 82;
},
{
glyphname = S;
layers = (
{
layerId = m01;
shapes = (
{
closed = 1;
nodes = (
(372,-11,o),
(445,65,o),
(445,193,cs),
(445,271,o),
(412,323,o),
(249,390,cs),
(181,418,o),
(136,462,o),
(135,512,cs),
(135,592,o),
(176,630,o),
(250,630,cs),
(319,630,o),
(369,574,o),
(369,505,c),
(444,505,l),
(441,644,l),
(389.907,644,l),
(356.078,678.661,o),
(307.945,700,o),
(250,700,cs),
(128,700,o),
(65,631,o),
(65,512,cs),
(66,426,o),
(128,358,o),
(236,318,cs),
(295,296,o),
(375,247,o),
(375,193,cs),
(375,104,o),
(324,59,o),
(250,59,cs),
(181,59,o),
(131,127,o),
(131,200,c),
(56,200,l),
(59,55,l),
(106.593,55,l),
(140.674,14.818,o),
(190.252,-11,o),
(250,-11,cs)
);
}
);
width = 500;
}
);
unicode = 83;
},
{
glyphname = T;
layers = (
{
layerId = m01;
shapes = (
{
closed = 1;
nodes = (
(43,704,l),
(43,596,l),
(113,596,l),
(113,624,l),
(215,624,l),
(215,58,l),
(183,58,l),
(183,-12,l),
(317,-12,l),
(317,58,l),
(285,58,l),
(285,624,l),
(387,624,l),
(387,596,l),
(457,596,l),
(457,704,l)
);
}
);
width = 500;
}
);
unicode = 84;
},
{
glyphname = U;
layers = (
{
layerId = m01;
shapes = (
{
closed = 1;
nodes = (
(40,705,l),
(40,635,l),
(72,635,l),
(72,220,ls),
(72,101,o),
(101,-7,o),
(250,-7,cs),
(399,-7,o),
(427,101,o),
(427,220,cs),
(427,635,l),
(460,635,l),
(460,705,l),
(326,705,l),
(326,635,l),
(357,635,l),
(357,220,ls),
(357,88,o),
(313,64,o),
(250,63,cs),
(187,64,o),
(143,88,o),
(143,220,cs),
(143,635,l),
(174,635,l),
(174,705,l)
);
}
);
width = 500;
}
);
unicode = 85;
},
{
glyphname = V;
layers = (
{
layerId = m01;
shapes = (
{
closed = 1;
nodes = (
(32,708,l),
(32,638,l),
(61.94,638,l),
(207,-8,l),
(293,-8,l),
(438.06,638,l),
(468,638,l),
(468,708,l),
(334,708,l),
(334,638,l),
(360.06,638,l),
(250,147.867,l),
(139.94,638,l),
(166,638,l),
(166,708,l)
);
}
);
width = 500;
}
);
unicode = 86;
},
{
glyphname = W;
layers = (
{
layerId = m01;
shapes = (
{
closed = 1;
nodes = (
(245.648,358.378,l),
(314,-1,l),
(391,-1,l),
(433.202,634,l),
(457,634,l),
(457,704,l),
(332,704,l),
(332,634,l),
(362.314,634,l),
(337.894,206.989,l),
(275,509,l),
(216,509,l),
(153.106,206.989,l),
(128.686,634,l),
(159,634,l),
(159,704,l),
(34,704,l),
(34,634,l),
(57.798,634,l),
(100,-1,l),
(178,-1,l)
);
}
);
width = 500;
}
);
unicode = 87;
},
{
glyphname = X;
lastChange = "2021-06-21 08:21:59 +0000";
layers = (
{
layerId = m01;
shapes = (
{
closed = 1;
nodes = (
(43,701,l),
(43,631,l),
(95.249,631,l),
(214,350,l),
(95.249,65,l),
(43,65,l),
(43,-5,l),
(139,-5,l),
(251,260,l),
(361,-5,l),
(457,-5,l),
(457,65,l),
(411.057,65,l),
(290,350,l),
(411.057,631,l),
(457,631,l),
(457,701,l),
(361,701,l),
(251,440,l),
(139,701,l)
);
}
);
width = 500;
}
);
unicode = 88;
},
{
glyphname = Y;
layers = (
{
layerId = m01;
shapes = (
{
closed = 1;
nodes = (
(312,0,l),
(312,70,l),
(284.734,70,l),
(287,286,l),
(426.594,630,l),
(469,630,l),
(470,700,l),
(323,700,l),
(324,630,l),
(349.646,630,l),
(250,384,l),
(150.354,630,l),
(176,630,l),
(177,700,l),
(30,700,l),
(31,630,l),
(73.406,630,l),
(213,286,l),
(213,70,l),
(188,70,l),
(188,0,l)
);
}
);
width = 500;
}
);
unicode = 89;
},
{
glyphname = Z;
layers = (
{
layerId = m01;
shapes = (
{
closed = 1;
nodes = (
(437,0,l),
(447,93,l),
(375,93,l),
(373.022,70,l),
(150,70,l),
(436,631,l),
(436,700,l),
(63,700,l),
(53,607,l),
(125,607,l),
(127.065,631,l),
(350,631,l),
(64,69,l),
(64,0,l)
);
}
);
width = 500;
}
);
unicode = 90;
},
{
glyphname = a;
layers = (
{
layerId = m01;
shapes = (
{
closed = 1;
nodes = (
(349,446,l),
(323,484,o),
(283,504,o),
(225,504,cs),
(101,504,o),
(39,416,o),
(39,250,cs),
(39,98,o),
(97,-3,o),
(225,-3,cs),
(279,-3,o),
(317,15,o),
(342,47,c),
(344,-1,l),
(429,-1,l),
(426,79,l),
(413,79,l),
(420,422,l),
(435,422,l),
(439,502,l),
(354,502,l)
);
},
{
closed = 1;
nodes = (
(109,368,o),
(156,437,o),
(225,437,cs),
(292,437,o),
(348,373,o),
(346,263,cs),
(345,223,ls),
(343,123,o),
(290,62,o),
(225,62,cs),
(155,62,o),
(109,134,o),
(109,250,cs)
);
}
);
userData = {
com.schriftgestaltung.Glyphs.lastChange = "2021-06-18 11:47:39 +0000";
};
width = 500;
}
);
unicode = 97;
},
{
glyphname = b;
layers = (
{
layerId = m01;
shapes = (
{
closed = 1;
nodes = (
(158,50,l),
(185,16,o),
(208,-3,o),
(264,-3,cs),
(397,-3,o),
(451,109,o),
(451,249,cs),
(451,393,o),
(395,500,o),
(264,500,cs),
(216,500,o),
(185,483,o),
(158,449,c),
(158,625,l),
(155,705,l),
(74,705,l),
(77,625,l),
(88,625,l),
(88,79,l),
(75,79,l),
(72,-1,l),
(155,-1,l)
);
},
{
closed = 1;
nodes = (
(159,364,o),
(197,429,o),
(264,429,cs),
(341,429,o),
(381,349,o),
(381,249,cs),
(381,136,o),
(342,65,o),
(264,65,cs),
(194,65,o),
(159,134,o),
(159,250,cs)
);
}
);
width = 500;
}
);
unicode = 98;
},
{
glyphname = c;
lastChange = "2021-06-21 08:22:52 +0000";
layers = (
{
layerId = m01;
shapes = (
{
closed = 1;
nodes = (
(362,192,l),
(354,105,o),
(320,59,o),
(251,59,cs),
(170,59,o),
(131,124,o),
(131,244,cs),
(131,371,o),
(171,432,o),
(251,432,cs),
(309,432,o),
(344,397,o),
(358,334,c),
(431,334,l),
(415,454,l),
(381,449,l),
(352,483,o),
(306,499,o),
(248,499,cs),
(114,499,o),
(60,423,o),
(60,245,cs),
(60,79,o),
(112,-8,o),
(248,-8,cs),
(370,-8,o),
(424,58,o),
(435,192,c)
);
}
);
width = 500;
}
);
unicode = 99;
},
{
glyphname = d;
layers = (
{
layerId = m01;
shapes = (
{
closed = 1;
nodes = (
(432,-1,l),
(429,79,l),
(416,79,l),
(416,625,l),
(427,625,l),
(430,705,l),
(350,705,l),
(348,625,l),
(348,453,l),
(321,487,o),
(281,504,o),
(226,504,cs),
(102,504,o),
(39,416,o),
(39,249,cs),
(39,98,o),
(98,-3,o),
(226,-3,cs),
(282,-3,o),
(321,16,o),
(348,50,c),
(350,-1,l)
);
},
{
closed = 1;
nodes = (
(109,368,o),
(156,436,o),
(226,436,cs),
(295,436,o),
(347,368,o),
(347,250,cs),
(347,134,o),
(296,64,o),
(226,64,cs),
(156,64,o),
(109,134,o),
(109,249,cs)
);
}
);
width = 500;
}
);
unicode = 100;
},
{
glyphname = e;
layers = (
{
layerId = m01;
shapes = (
{
closed = 1;
nodes = (
(418,199,o),
(434,313,o),
(434,355,cs),
(434,441,o),
(363,500,o),
(258,499,cs),
(133,498,o),
(71,409,o),
(71,245,cs),
(71,79,o),
(118,-8,o),
(258,-8,cs),
(365,-8,o),
(411,44,o),
(435,147,c),
(362,147,l),
(346,90,o),
(319,57,o),
(261,57,cs),
(185,57,o),
(147,103,o),
(141,199,c)
);
},
{
closed = 1;
nodes = (
(147,374,o),
(180,433,o),
(261,433,cs),
(314,433,o),
(364,406,o),
(364,355,cs),
(364,295,o),
(292,260,o),
(141,260,c)
);
}
);
width = 500;
}
);
unicode = 101;
},
{
glyphname = f;
lastChange = "2021-06-21 08:38:04 +0000";
layers = (
{
layerId = m01;
shapes = (
{
closed = 1;
nodes = (
(91,500,l),
(211,500,l),
(211,581,ls),
(211,659,o),
(259,732,o),
(363,735,cs),
(383,736,o),
(409,731,o),
(430,720,c),
(398,662,l),
(390,665,o),
(383,667,o),
(371,667,cs),
(302,665,o),
(281,616,o),
(281,569,cs),
(281,500,l),
(445,500,l),
(445,430,l),
(281,430,l),
(283,-8,ls),
(284,-149,o),
(239,-209,o),
(170,-209,cs),
(103,-209,o),
(78,-179,o),
(31,-88,c),
(87,-55,l),
(120,-120,o),
(141,-139,o),
(172,-139,cs),
(197,-139,o),
(213,-91,o),
(213,-10,cs),
(211,430,l),
(91,430,l)
);
}
);
width = 500;
}
);
unicode = 102;
},
{
glyphname = g;
lastChange = "2021-06-21 08:24:47 +0000";
layers = (
{
layerId = m01;
shapes = (
{
closed = 1;
nodes = (
(174,75,o),
(129,165,o),
(129,247,cs),
(129,333,o),
(174,432,o),
(250,432,cs),
(337,432,o),
(358,371,o),
(358,244,cs),
(358,132,o),
(340,75,o),
(250,75,cs)
);
},
{
closed = 1;
nodes = (
(56,120,o),
(122,6,o),
(247,6,cs),
(290,6,o),
(337,19,o),
(357,43,c),
(352,-63,o),
(319,-131,o),
(241,-131,cs),
(200,-131,o),
(168,-115,o),
(149,-87,c),
(99,-141,l),
(130,-177,o),
(154,-200,o),
(223,-200,cs),
(364,-200,o),
(426,-107,o),
(426,61,cs),
(426,422,l),
(435,422,l),
(439,502,l),
(359,502,l),
(357,466,l),
(335,487,o),
(290,499,o),
(247,499,cs),
(125,499,o),
(56,377,o),
(56,248,cs)
);
}
);
width = 500;
}
);
unicode = 103;
},
{
glyphname = h;
lastChange = "2021-06-21 08:31:57 +0000";
layers = (
{
layerId = m01;
shapes = (
{
closed = 1;
nodes = (
(420,423,o),
(371,490,o),
(252,490,cs),
(214,490,o),
(187,475,o),
(162,454,c),
(162,625,l),
(160,705,l),
(78,705,l),
(81,625,l),
(92,625,l),
(92,79,l),
(79,79,l),
(77,-1,l),
(164,-1,l),
(162,79,l),
(162,264,ls),
(162,365,o),
(184,422,o),
(255,422,cs),
(324,422,o),
(348,376,o),
(344,232,cs),
(339,61,o),
(346,-3,o),
(450,-3,cs),
(467,-3,l),
(467,65,l),
(450,65,ls),
(413,65,o),
(409,88,o),
(414,232,cs)
);
}
);
width = 500;
}
);
unicode = 104;
},
{
glyphname = i;
lastChange = "2021-06-21 08:34:38 +0000";
layers = (
{
layerId = m01;
shapes = (
{
closed = 1;
nodes = (
(82,435,l),
(220,435,l),
(215,201,ls),
(212,60,o),
(252,-1,o),
(321,-1,cs),
(387,-1,o),
(428,37,o),
(475,127,c),
(415,155,l),
(393,105,o),
(363,67,o),
(321,67,cs),
(294,67,o),
(285,115,o),
(286,200,cs),
(291,505,l),
(82,505,l)
);
},
{
closed = 1;
nodes = (
(293,621,l),
(293,704,l),
(210,704,l),
(210,621,l)
);
}
);
width = 500;
}
);
unicode = 105;
},
{
glyphname = j;
lastChange = "2021-06-21 08:35:16 +0000";
layers = (
{
layerId = m01;
shapes = (
{
closed = 1;
nodes = (
(89,433,l),
(251,433,l),
(253,12,ls),
(253,-76,o),
(244,-121,o),
(216,-121,cs),
(170,-121,o),
(133,-78,o),
(110,-28,c),
(52,-62,l),
(109,-153,o),
(150,-189,o),
(216,-189,cs),
(284,-189,o),
(324,-122,o),
(323,13,cs),
(321,503,l),
(90,503,l)
);
},
{
closed = 1;
nodes = (
(305,621,l),
(305,704,l),
(222,704,l),
(222,621,l)
);
}
);
width = 500;
}
);
unicode = 106;
},
{
glyphname = k;
layers = (
{
layerId = m01;
shapes = (
{
closed = 1;
nodes = (
(174,217,l),
(212,217,l),
(361,0,l),
(444,0,l),
(272,250,l),
(444,500,l),
(361,500,l),
(212,288,l),
(174,288,l),
(174,705,l),
(90,705,l),
(93,625,l),
(104,625,l),
(104,79,l),
(91,79,l),
(88,-1,l),
(174,-1,l)
);
}
);
width = 500;
}
);
unicode = 107;
},
{
glyphname = l;
layers = (
{
layerId = m01;
shapes = (
{
closed = 1;
nodes = (
(193,58,o),
(220,0,o),
(304,0,cs),
(377,0,o),
(413,35,o),
(457,126,c),
(400,154,l),
(375,100,o),
(354,68,o),
(307,68,cs),
(273,68,o),
(262,104,o),
(262,199,cs),
(264,687,l),
(114,687,l),
(60,688,l),
(60,616,l),
(114,617,l),
(196,617,l),
(194,200,ls)
);
}
);
width = 500;
}
);
unicode = 108;
},
{
glyphname = m;
layers = (
{
layerId = m01;
shapes = (
{
closed = 1;
nodes = (
(168,396,o),
(188,449,o),
(207,449,cs),
(228,449,o),
(245,396,o),
(245,335,cs),
(245,225,l),
(304,225,l),
(304,335,ls),
(304,396,o),
(323,448,o),
(343,448,cs),
(361,448,o),
(377,396,o),
(377,335,cs),
(377,-1,l),
(461,-1,l),
(458,69,l),
(447,69,l),
(447,335,ls),
(447,434,o),
(399,513,o),
(343,513,cs),
(316,513,o),
(293,496,o),
(276,468,c),
(260,496,o),
(235,513,o),
(207,513,cs),
(185,513,o),
(157,486,o),
(138,444,c),
(129,467,o),
(106,494,o),
(89,514,c),
(32,461,l),
(44,445,o),
(56,428,o),
(67,407,c),
(83,418,l),
(97,391,o),
(100,368,o),
(100,335,cs),
(101,69,l),
(91,69,l),
(86,-1,l),
(166,-1,l),
(170,0,l),
(168,335,ls)
);
}
);
width = 500;
}
);
unicode = 109;
},
{
glyphname = n;
layers = (
{
layerId = m01;
shapes = (
{
closed = 1;
nodes = (
(175,68,l),
(175,331,ls),
(175,392,o),
(214,448,o),
(274,448,cs),
(324,448,o),
(363,392,o),
(363,331,cs),
(363,68,l),
(365,-2,l),
(447,-2,l),
(444,68,l),
(433,68,l),
(433,331,ls),
(433,430,o),
(367,510,o),
(274,510,cs),
(217,510,o),
(175,486,o),
(141,447,c),
(125,471,o),
(110,491,o),
(97,506,c),
(35,455,l),
(49,440,o),
(64,419,o),
(75,398,c),
(91,409,l),
(105,382,o),
(106,359,o),
(106,326,cs),
(104,68,l),
(93,68,l),
(93,-2,l),
(173,-2,l)
);
}
);
userData = {
com.schriftgestaltung.Glyphs.lastChange = "2021-06-18 11:47:39 +0000";
};
width = 500;
}
);
unicode = 110;
},
{
glyphname = o;
layers = (
{
layerId = m01;
shapes = (
{
closed = 1;
nodes = (
(180,57,o),
(127,134,o),
(127,250,cs),
(127,368,o),
(181,442,o),
(250,442,cs),
(320,442,o),
(373,368,o),
(373,249,cs),
(373,134,o),
(320,57,o),
(250,57,cs)
);
},
{
closed = 1;
nodes = (
(378,-3,o),
(443,98,o),
(443,249,cs),
(443,416,o),
(374,504,o),
(250,504,cs),
(126,504,o),
(57,416,o),
(57,250,cs),
(57,98,o),
(122,-3,o),
(250,-3,cs)
);
}
);
width = 500;
}
);
unicode = 111;
},
{
glyphname = p;
layers = (
{
layerId = m01;
shapes = (
{
closed = 1;
nodes = (
(190,55,o),
(157,122,o),
(157,242,cs),
(157,366,o),
(191,429,o),
(274,429,cs),
(358,429,o),
(391,366,o),
(391,242,cs),
(391,120,o),
(358,55,o),
(274,55,cs)
);
},
{
closed = 1;
nodes = (
(155,-203,l),
(157,-123,l),
(157,35,l),
(183,6,o),
(220,-8,o),
(271,-8,cs),
(413,-8,o),
(461,74,o),
(461,243,cs),
(461,418,o),
(413,496,o),
(271,496,cs),
(222,496,o),
(184,481,o),
(157,450,c),
(155,500,l),
(73,500,l),
(76,420,l),
(87,420,l),
(87,-123,l),
(74,-123,l),
(71,-203,l)
);
}
);
width = 500;
}
);
unicode = 112;
},
{
glyphname = q;
layers = (
{
layerId = m01;
shapes = (
{
closed = 1;
nodes = (
(151,55,o),
(118,120,o),
(118,242,cs),
(118,366,o),
(151,429,o),
(235,429,cs),
(318,429,o),
(352,366,o),
(352,242,cs),
(352,122,o),
(319,55,o),
(235,55,cs)
);
},
{
closed = 1;
nodes = (
(435,-123,l),
(422,-123,l),
(422,420,l),
(433,420,l),
(436,500,l),
(354,500,l),
(352,450,l),
(325,481,o),
(287,496,o),
(238,496,cs),
(96,496,o),
(48,418,o),
(48,243,cs),
(48,74,o),
(96,-8,o),
(238,-8,cs),
(289,-8,o),
(326,6,o),
(352,35,c),
(352,-123,l),
(354,-203,l),
(438,-203,l)
);
}
);
width = 500;
}
);
unicode = 113;
},
{
glyphname = r;
layers = (
{
layerId = m01;
shapes = (
{
closed = 1;
nodes = (
(466,454,l),
(435,486,o),
(390,500,o),
(328,500,cs),
(256.19,500,o),
(207.067,479.716,o),
(176.354,435.564,c),
(166.407,454.928,o),
(152,474,o),
(137,493,c),
(69,441,l),
(82,425,o),
(95,407,o),
(106,386,c),
(122,395,l),
(138,376,o),
(139,361,o),
(139,322,cs),
(139,69,l),
(129,69,l),
(125,-1,l),
(223,-1,l),
(220,69,l),
(209,69,l),
(209,245,ls),
(209,372,o),
(248,435,o),
(331,435,cs),
(344,435,o),
(367,431,o),
(375,428,c),
(370,389,l),
(419,369,l)
);
}
);
width = 500;
}
);
unicode = 114;
},
{
glyphname = s;
layers = (
{
layerId = m01;
shapes = (
{
closed = 1;
nodes = (
(429,350,l),
(428,355,l),
(429,353,l),
(433,455,l),
(371,455,l),
(340,483,o),
(300,498,o),
(250,499,cs),
(65,501,o),
(-15,315,o),
(152,244,cs),
(223,214,o),
(265,209,o),
(319,186,cs),
(391,155,o),
(370,58,o),
(267,58,cs),
(194,58,o),
(156,99,o),
(141,156,c),
(68,138,l),
(91,45,o),
(158,-9,o),
(252,-10,cs),
(420,-12,o),
(522,174,o),
(349,245,cs),
(280,273,o),
(236,272,o),
(182,303,cs),
(120,339,o),
(147,431,o),
(235,431,cs),
(308,431,o),
(344,396,o),
(358,339,c)
);
}
);
width = 500;
}
);
unicode = 115;
},
{
glyphname = t;
layers = (
{
layerId = m01;
shapes = (
{
closed = 1;
nodes = (
(279,428,l),
(425,429,l),
(425,498,l),
(279,498,l),
(279,648,l),
(206,648,l),
(206,498,l),
(70,498,l),
(70,429,l),
(206,428,l),
(206,184,ls),
(206,56,o),
(223,-2,o),
(315,-2,cs),
(378,-2,o),
(419,42,o),
(467,133,c),
(409,167,l),
(387,124,o),
(346,69,o),
(315,69,cs),
(285,69,o),
(279,106,o),
(279,182,cs)
);
}
);
width = 500;
}
);
unicode = 116;
},
{
glyphname = u;
layers = (
{
layerId = m01;
shapes = (
{
closed = 1;
nodes = (
(135,490,l),
(53,490,l),
(55,410,l),
(65,410,l),
(64,243,ls),
(63,77,o),
(109,-9,o),
(228,-10,cs),
(274.197,-10.537,o),
(316.355,14.03,o),
(345.482,66.648,c),
(358,38,o),
(377,15,o),
(409,-10,c),
(454,43,l),
(408,83,o),
(395,112,o),
(395,163,cs),
(394,410,l),
(404,410,l),
(407,490,l),
(325,490,l),
(325,410,l),
(325.728,247.875,ls),
(326,136,o),
(287,53,o),
(230,53,cs),
(163,53,o),
(132,122,o),
(133,242,cs)
);
}
);
width = 500;
}
);
unicode = 117;
},
{
glyphname = v;
layers = (
{
layerId = m01;
shapes = (
{
closed = 1;
nodes = (
(421,430,l),
(456,430,l),
(459,500,l),
(367,500,l),
(250,85,l),
(132,497,l),
(132,500,l),
(41,500,l),
(43,430,l),
(77,430,l),
(210,0,l),
(290,0,l)
);
}
);
width = 500;
}
);
unicode = 118;
},
{
glyphname = w;
layers = (
{
layerId = m01;
shapes = (
{
closed = 1;
nodes = (
(250,204,l),
(303,1,l),
(377,1,l),
(439.952,419,l),
(462,419,l),
(465,499,l),
(382,499,l),
(340,104,l),
(287,294,l),
(214,294,l),
(160,104,l),
(120,499,l),
(39,499,l),
(41,419,l),
(61.888,419,l),
(124,1,l),
(197,1,l)
);
}
);
width = 501;
}
);
unicode = 119;
},
{
glyphname = x;
layers = (
{
layerId = m01;
shapes = (
{
closed = 1;
nodes = (
(446,1,l),
(443,71,l),
(396,71,l),
(291,250,l),
(396,429,l),
(443,429,l),
(446,499,l),
(359,499,l),
(249.5,316.287,l),
(140,499,l),
(54,499,l),
(56,429,l),
(103,429,l),
(208,250,l),
(103,71,l),
(56,71,l),
(54,1,l),
(140,1,l),
(249.5,183.713,l),
(359,1,l)
);
}
);
width = 500;
}
);
unicode = 120;
},
{
glyphname = y;
layers = (
{
layerId = m01;
shapes = (
{
closed = 1;
nodes = (
(417.6,430,l),
(457,430,l),
(460,500,l),
(368,500,l),
(253.322,141.632,l),
(132,500,l),
(41,500,l),
(43,430,l),
(84.058,430,l),
(219.496,35.925,l),
(166.08,-131,l),
(123,-131,l),
(119,-201,l),
(215,-201,l),
(214.957,-200,l),
(216,-200,l)
);
}
);
width = 500;
}
);
unicode = 121;
},
{
glyphname = z;
layers = (
{
layerId = m01;
shapes = (
{
closed = 1;
nodes = (
(437,92,l),
(366,89,l),
(366,70,l),
(164,70,l),
(437,430,l),
(437,500,l),
(63,500,l),
(63,408,l),
(134,411,l),
(134,430,l),
(337,430,l),
(64,70,l),
(64,0,l),
(437,0,l)
);
}
);
width = 500;
}
);
unicode = 122;
},
{
glyphname = Gamma;
layers = (
{
layerId = m01;
shapes = (
{
closed = 1;
nodes = (
(226,69,l),
(189,69,l),
(185,631,l),
(381,632,l),
(381,589,l),
(452,589,l),
(451,700,l),
(95,700,l),
(95,630,l),
(115,630,l),
(119,69,l),
(95,69,l),
(95,-1,l),
(226,-1,l)
);
}
);
userData = {
com.schriftgestaltung.Glyphs.lastChange = "2021-06-18 05:28:15 +0000";
};
width = 500;
}
);
unicode = 915;
},
{
glyphname = Delta;
layers = (
{
layerId = m01;
shapes = (
{
closed = 1;
nodes = (
(372,70,l),
(128,70,l),
(250,574,l)
);
},
{
closed = 1;
nodes = (
(48,70,l),
(48,0,l),
(452,0,l),
(452,70,l),
(285,700,l),
(215,700,l)
);
}
);
userData = {
com.schriftgestaltung.Glyphs.lastChange = "2021-06-18 05:30:51 +0000";
};
width = 500;
}
);
unicode = 916;
},
{
glyphname = Theta;
layers = (
{
layerId = m01;
shapes = (
{
closed = 1;
nodes = (
(401,704,o),
(447,575,o),
(447,350,cs),
(447,150,o),
(412,-4,o),
(245,-4,cs),
(78,-4,o),
(43,150,o),
(43,350,cs),
(43,575,o),
(89,704,o),
(245,704,cs)
);
},
{
closed = 1;
nodes = (
(113,137,o),
(164,68,o),
(245,67,cs),
(326,68,o),
(378,137,o),
(378,350,cs),
(378,568,o),
(323,634,o),
(245,634,cs),
(164,634,o),
(113,568,o),
(113,350,cs)
);
},
{
closed = 1;
nodes = (
(172,306,l),
(183,309,o),
(193,311,o),
(204,311,cs),
(296,311,ls),
(307,311,o),
(317,309,o),
(328,306,c),
(328,387,l),
(317,384,o),
(307,382,o),
(296,382,cs),
(204,382,ls),
(193,382,o),
(183,384,o),
(172,387,c)
);
}
);
userData = {
com.schriftgestaltung.Glyphs.lastChange = "2021-06-18 05:32:42 +0000";
};
width = 500;
}
);
unicode = 920;
},
{
glyphname = Lambda;
layers = (
{
layerId = m01;
shapes = (
{
closed = 1;
nodes = (
(369,70,l),
(356,70,l),
(356,0,l),
(464,0,l),
(462,70,l),
(442,70,l),
(301,718,l),
(198,718,l),
(58,70,l),
(38,70,l),
(36,0,l),
(143,0,l),
(142,70,l),
(126,70,l),
(250,636,l)
);
}
);
userData = {
com.schriftgestaltung.Glyphs.lastChange = "2021-06-18 05:35:31 +0000";
};
width = 500;
}
);
unicode = 923;
},
{
glyphname = Xi;
layers = (
{
layerId = m01;
shapes = (
{
closed = 1;
nodes = (
(103,309,l),
(114,312,o),
(124,314,o),
(135,314,cs),
(365,314,ls),
(376,314,o),
(386,312,o),
(397,309,c),
(397,390,l),
(386,387,o),
(376,385,o),
(365,385,cs),
(135,385,ls),
(124,385,o),
(114,387,o),
(103,390,c)
);
},
{
closed = 1;
nodes = (
(54,622,l),
(65,625,o),
(95,632,o),
(106,632,cs),
(394,632,ls),
(405,632,o),
(435,625,o),
(446,622,c),
(446,704,l),
(54,704,l)
);
},
{
closed = 1;
nodes = (
(55,-6,l),
(446,-6,l),
(446,76,l),
(435,73,o),
(405,66,o),
(394,66,cs),
(107,66,ls),
(96,66,o),
(66,73,o),
(55,76,c)
);
}
);
userData = {
com.schriftgestaltung.Glyphs.lastChange = "2021-06-18 06:06:12 +0000";
};
width = 500;
}
);
unicode = 926;
},
{
glyphname = Pi;
layers = (
{
layerId = m01;
shapes = (
{
closed = 1;
nodes = (
(173,69,l),
(151,69,l),
(151,631,l),
(349,631,l),
(349,69,l),
(327,69,l),
(327,-1,l),
(438,-1,l),
(438,69,l),
(419,69,l),
(419,630,l),
(443,630,l),
(443,700,l),
(57,700,l),
(57,630,l),
(81,630,l),
(81,69,l),
(62,69,l),
(62,-1,l),
(173,-1,l)
);
}
);
userData = {
com.schriftgestaltung.Glyphs.lastChange = "2021-06-18 13:54:34 +0000";
};
width = 500;
}
);
unicode = 928;
},
{
glyphname = Sigma;
layers = (
{
layerId = m01;
shapes = (
{
closed = 1;
nodes = (
(443,69,l),
(443,146,l),
(373,146,l),
(373,69,l),
(155,70,l),
(272,324,l),
(272,386,l),
(155,631,l),
(373,631,l),
(373,565,l),
(443,565,l),
(443,631,l),
(442,700,l),
(68,701,l),
(68,631,l),
(199,354,l),
(67,70,l),
(66,0,l),
(442,0,l)
);
}
);
userData = {
com.schriftgestaltung.Glyphs.lastChange = "2021-06-18 04:25:43 +0000";
};
width = 500;
}
);
unicode = 931;
},
{
glyphname = Upsilon;
layers = (
{
layerId = m01;
shapes = (
{
closed = 1;
nodes = (
(312,0,l),
(312,70,l),
(284.734,70,l),
(287,286,l),
(426.594,630,l),
(469,630,l),
(470,700,l),
(323,700,l),
(324,630,l),
(349.646,630,l),
(250,384,l),
(150.354,630,l),
(176,630,l),
(177,700,l),
(30,700,l),
(31,630,l),
(73.406,630,l),
(213,286,l),
(213,70,l),
(188,70,l),
(188,0,l)
);
}
);
userData = {
com.schriftgestaltung.Glyphs.lastChange = "2021-06-18 06:09:18 +0000";
};
width = 500;
}
);
unicode = 933;
},
{
glyphname = Phi;
layers = (
{
layerId = m01;
shapes = (
{
closed = 1;
nodes = (
(105,701,l),
(105,632,l),
(215,631.64,l),
(215,570.205,l),
(112.204,559.081,o),
(52,495.219,o),
(52,350,cs),
(52,216.102,o),
(109.295,142.774,o),
(215,130.016,c),
(215,69,l),
(105,69,l),
(105,0,l),
(395,-1,l),
(395,69,l),
(285,69,l),
(285,130.015,l),
(390.705,142.765,o),
(448,216.007,o),
(448,349,cs),
(448,495.121,o),
(387.796,559.071,o),
(285,570.204,c),
(285,631.36,l),
(395,631,l),
(395,700,l)
);
},
{
closed = 1;
nodes = (
(122,444.901,o),
(162.179,488.727,o),
(215,501.148,c),
(215,197.923,l),
(161.675,210.679,o),
(122,255.714,o),
(122,350,cs)
);
},
{
closed = 1;
nodes = (
(285,501.225,l),
(338.325,488.893,o),
(378,444.941,o),
(378,349,cs),
(378,256.368,o),
(338.325,210.935,o),
(285,197.992,c)
);
}
);
userData = {
com.schriftgestaltung.Glyphs.lastChange = "2021-06-18 06:11:51 +0000";
};
width = 500;
}
);
unicode = 934;
},
{
glyphname = Psi;
layers = (
{
layerId = m01;
shapes = (
{
closed = 1;
nodes = (
(215,637,l),
(215,69,l),
(105,69,l),
(105,0,l),
(395,-1,l),
(395,69,l),
(285,69,l),
(285,637,l)
);
},
{
closed = 1;
nodes = (
(378,631,l),
(378,413,o),
(361,262,o),
(250,262,cs),
(129,262,o),
(122,412,o),
(122,632,c),
(52,632,l),
(52,400,o),
(64,182,o),
(250,182,cs),
(428,182,o),
(448,400,o),
(448,631,c)
);
},
{
closed = 1;
nodes = (
(190,630,l),
(310,630,l),
(310,700,l),
(190,700,l)
);
},
{
closed = 1;
nodes = (
(350,630,l),
(470,630,l),
(470,700,l),
(350,700,l)
);
},
{
closed = 1;
nodes = (
(30,630,l),
(150,630,l),
(150,700,l),
(30,700,l)
);
}
);
userData = {
com.schriftgestaltung.Glyphs.lastChange = "2021-06-18 06:17:03 +0000";
};
width = 500;
}
);
unicode = 936;
},
{
glyphname = Omega;
layers = (
{
layerId = m01;
shapes = (
{
closed = 1;
nodes = (
(290,-5,l),
(470,-5,l),
(469,65,l),
(359,65,l),
(412,85,o),
(447,175,o),
(447,390,cs),
(447,583,o),
(401,709,o),
(245,709,cs),
(89,709,o),
(43,583,o),
(43,390,cs),
(43,174,o),
(105,85,o),
(151,65,c),
(34,65,l),
(34,-5,l),
(209,-5,l),
(209,116,l),
(144,145,o),
(113,208,o),
(113,390,cs),
(113,576,o),
(164,639,o),
(245,639,cs),
(323,639,o),
(378,576,o),
(378,390,cs),
(378,207,o),
(359,142,o),
(290,116,c)
);
}
);
userData = {
com.schriftgestaltung.Glyphs.lastChange = "2021-06-18 06:27:32 +0000";
};
width = 500;
}
);
unicode = 937;
},
{
glyphname = alpha;
layers = (
{
layerId = m01;
shapes = (
{
closed = 1;
nodes = (
(412,493,o),
(374,458,o),
(356,403,c),
(328,465,o),
(273,498,o),
(220,498,cs),
(92,498,o),
(42,416,o),
(42,250,cs),
(42,98,o),
(92,3,o),
(220,3,cs),
(273,3,o),
(339,44,o),
(356,107,c),
(366,62,o),
(393,11,o),
(442,-1,c),
(463,54,l),
(374,102,o),
(378,409,o),
(463,442,c),
(451,502,l)
);
},
{
closed = 1;
nodes = (
(108,368,o),
(142,432,o),
(212,432,cs),
(273,432,o),
(338,347,o),
(338,250,cs),
(338,158,o),
(276,67,o),
(212,67,cs),
(142,67,o),
(108,134,o),
(108,250,cs)
);
}
);
userData = {
com.schriftgestaltung.Glyphs.lastChange = "2021-06-18 04:35:46 +0000";
};
width = 500;
}
);
unicode = 945;
},
{
glyphname = beta;
layers = (
{
layerId = m01;
shapes = (
{
closed = 1;
nodes = (
(153,-180,l),
(153,0,l),
(215,0,ls),
(333,0,o),
(451,57,o),
(451,176,cs),
(451,258,o),
(414,338,o),
(332,358,c),
(402,379,o),
(423,438,o),
(423,519,cs),
(423,623,o),
(356,697,o),
(249,697,cs),
(140,697,o),
(83,597,o),
(83,479,cs),
(83,-180,l)
);
},
{
closed = 1;
nodes = (
(153,479,ls),
(153,571,o),
(169,630,o),
(249,630,cs),
(317,630,o),
(362,593,o),
(362,514,cs),
(362,429,o),
(305,388,o),
(225,388,cs),
(207,388,l),
(207,323,l),
(230,323,ls),
(326,323,o),
(389,272,o),
(389,170,cs),
(389,94,o),
(297,65,o),
(215,65,cs),
(153,65,l)
);
}
);
userData = {
com.schriftgestaltung.Glyphs.lastChange = "2021-06-18 05:26:11 +0000";
};
width = 500;
}
);
unicode = 946;
},
{
glyphname = gamma;
layers = (
{
layerId = m01;
shapes = (
{
closed = 1;
nodes = (
(286,-132,l),
(264,-132,l),
(280,37,l),
(324,101,o),
(363,159,o),
(385,229,cs),
(412,316,o),
(421,410,o),
(427,500,c),
(359,500,l),
(353,418,o),
(348,333,o),
(323,254,cs),
(310,211,o),
(286,172,o),
(261,135,c),
(230,262,o),
(198,361,o),
(120,501,c),
(36,501,l),
(38,431,l),
(79,431,l),
(140,316,o),
(211,112,o),
(206,37,cs),
(194,-132,l),
(172,-132,l),
(172,-202,l),
(287,-202,l)
);
}
);
userData = {
com.schriftgestaltung.Glyphs.lastChange = "2021-06-18 05:42:21 +0000";
};
width = 500;
}
);
unicode = 947;
},
{
glyphname = delta;
layers = (
{
layerId = m01;
shapes = (
{
closed = 1;
nodes = (
(150,601,o),
(233,529,o),
(289,473,c),
(65,526,o),
(47,290,o),
(56,224,cs),
(71,110,o),
(141,0,o),
(262,0,cs),
(386,0,o),
(449,125,o),
(442,239,cs),
(428,462,o),
(295,577,o),
(183,647,c),
(356,645,l),
(361,592,l),
(422,592,l),
(415,706,l),
(107,706,l),
(84,634,l)
);
},
{
closed = 1;
nodes = (
(112,316,o),
(135,418,o),
(250,415,cs),
(317,413,o),
(371,331,o),
(377,239,cs),
(384,132,o),
(322,64,o),
(262,64,cs),
(200,64,o),
(132,117,o),
(121,224,cs)
);
}
);
userData = {
com.schriftgestaltung.Glyphs.lastChange = "2021-06-18 05:49:46 +0000";
};
width = 500;
}
);
unicode = 948;
},
{
glyphname = epsilon;
layers = (
{
layerId = m01;
shapes = (
{
closed = 1;
nodes = (
(308,283,l),
(228,283,o),
(139,303,o),
(139,368,cs),
(139,412,o),
(183,445,o),
(242,445,cs),
(299,445,o),
(326,407,o),
(340,373,c),
(406,373,l),
(406,445,l),
(372,445,l),
(362,471,o),
(306,506,o),
(242,506,cs),
(129,506,o),
(69,440,o),
(69,369,cs),
(69,311,o),
(96,276,o),
(148,256,c),
(98,232,o),
(71,190,o),
(71,131,cs),
(71,59,o),
(114,-4,o),
(241,-4,cs),
(345,-4,o),
(395,43,o),
(404,116,c),
(338,116,l),
(331,69,o),
(299,55,o),
(241,55,cs),
(172,55,o),
(139,83,o),
(139,130,cs),
(139,207,o),
(229,228,o),
(308,228,c)
);
}
);
userData = {
com.schriftgestaltung.Glyphs.lastChange = "2021-06-18 05:57:34 +0000";
};
width = 500;
}
);
unicode = 949;
},
{
glyphname = zeta;
lastChange = "2021-06-20 06:09:04 +0000";
layers = (
{
layerId = m01;
shapes = (
{
closed = 1;
nodes = (
(133,392,o),
(261,533,o),
(409,615,c),
(390,711,l),
(129,679,l),
(127,695,l),
(46,684,l),
(57,603,l),
(314,638,l),
(207,559,o),
(65,430,o),
(63,284,cs),
(62,188,o),
(82,52,o),
(261,52,cs),
(375,52,o),
(384,21,o),
(374,-8,cs),
(356,-60,o),
(212,-72,o),
(119,-67,c),
(114,-135,l),
(215,-141,o),
(415,-129,o),
(446,-21,cs),
(468,57,o),
(416,122,o),
(261,122,cs),
(154,122,o),
(133,188,o),
(133,284,cs)
);
}
);
userData = {
com.schriftgestaltung.Glyphs.lastChange = "2021-06-20 03:37:48 +0000";
};
width = 500;
}
);
unicode = 950;
},
{
glyphname = eta;
layers = (
{
layerId = m01;
shapes = (
{
closed = 1;
nodes = (
(175,69,l),
(175,331,ls),
(175,392,o),
(210,448,o),
(270,448,cs),
(316,448,o),
(355,392,o),
(355,331,cs),
(355,-4,l),
(425,-4,l),
(425,331,ls),
(425,430,o),
(359,510,o),
(270,510,cs),
(213,510,o),
(175,486,o),
(141,447,c),
(125,471,o),
(110,491,o),
(97,506,c),
(35,455,l),
(49,440,o),
(64,419,o),
(75,398,c),
(91,409,l),
(105,382,o),
(106,359,o),
(106,326,cs),
(104,69,l),
(93,69,l),
(93,-1,l),
(173,-1,l)
);
},
{
closed = 1;
nodes = (
(355,-4,l),
(355,-145,o),
(392,-197,o),
(474,-197,c),
(474,-127,l),
(434,-127,o),
(425,-89,o),
(425,-4,c)
);
}
);
userData = {
com.schriftgestaltung.Glyphs.lastChange = "2021-06-18 06:01:10 +0000";
};
width = 500;
}
);
unicode = 951;
},
{
glyphname = theta;
layers = (
{
layerId = m01;
shapes = (
{
closed = 1;
nodes = (
(89,704,o),
(43,575,o),
(43,350,cs),
(43,150,o),
(78,-4,o),
(245,-4,cs),
(412,-4,o),
(447,150,o),
(447,350,cs),
(447,575,o),
(401,704,o),
(245,704,cs)
);
},
{
closed = 1;
nodes = (
(118.596,574.936,o),
(168.374,634,o),
(245,634,cs),
(318.788,634,o),
(371.993,574.936,o),
(377.524,384,c),
(113.443,384,l)
);
},
{
closed = 1;
nodes = (
(377.437,313,l),
(371.619,128.921,o),
(321.113,67.94,o),
(245,67,cs),
(168.887,67.94,o),
(119.264,128.921,o),
(113.552,313,c)
);
}
);
userData = {
com.schriftgestaltung.Glyphs.lastChange = "2021-06-18 05:58:52 +0000";
};
width = 500;
}
);
unicode = 952;
},
{
glyphname = iota;
lastChange = "2021-06-20 06:04:51 +0000";
layers = (
{
layerId = m01;
shapes = (
{
closed = 1;
nodes = (
(376,81,l),
(365,73,o),
(335,53,o),
(323,53,cs),
(256,53,o),
(246,89,o),
(247,209,cs),
(249,501,l),
(134,501,l),
(134,421,l),
(179,421,l),
(178,210,ls),
(177,44,o),
(202,-9,o),
(321,-10,cs),
(343,-10,o),
(394,14,o),
(412,30,c)
);
}
);
userData = {
com.schriftgestaltung.Glyphs.lastChange = "2021-06-18 07:09:00 +0000";
};
width = 500;
}
);
unicode = 953;
},
{
glyphname = kappa;
layers = (
{
layerId = m01;
shapes = (
{
closed = 1;
nodes = (
(163,169,l),
(210,229,l),
(321,36,ls),
(343,-2,o),
(383,0,o),
(426,0,c),
(426,69,l),
(381,69,o),
(372,70,o),
(352,106,cs),
(255,282,l),
(350,394,ls),
(377,425,o),
(379,431,o),
(424,431,c),
(424,500,l),
(381,500,o),
(348,497,o),
(319,464,cs),
(163,288,l),
(161,500,l),
(77,500,l),
(80,420,l),
(91,420,l),
(93,79,l),
(80,79,l),
(77,-1,l),
(163,-1,l)
);
}
);
userData = {
com.schriftgestaltung.Glyphs.lastChange = "2021-06-18 12:03:40 +0000";
};
width = 500;
}
);
unicode = 954;
},
{
glyphname = lambda;
layers = (
{
layerId = m01;
shapes = (
{
closed = 1;
nodes = (
(264,700,l),
(264,701,l),
(168,701,l),
(172,631,l),
(215,631,l),
(285,411,l),
(107,-5,l),
(185,-4,l),
(319,306,l),
(417,0,l),
(509,0,l),
(506,70,l),
(467,70,l),
(265,700,l)
);
}
);
userData = {
com.schriftgestaltung.Glyphs.lastChange = "2021-06-18 13:30:53 +0000";
};
width = 600;
}
);
unicode = 955;
},
{
glyphname = mu;
layers = (
{
layerId = m01;
shapes = (
{
closed = 1;
nodes = (
(150,500,l),
(68,500,l),
(70,420,l),
(80,420,l),
(79,253,ls),
(78,87,o),
(124,-11,o),
(243,0,cs),
(289,4,o),
(331,24,o),
(360,77,c),
(373,48,o),
(392,25,o),
(424,0,c),
(469,53,l),
(423,93,o),
(410,122,o),
(410,173,cs),
(409,420,l),
(419,420,l),
(422,500,l),
(340,500,l),
(340,420,l),
(341,258,ls),
(342,146,o),
(302,63,o),
(245,63,cs),
(178,63,o),
(147,132,o),
(148,252,cs)
);
},
{
closed = 1;
nodes = (
(80,443,l),
(80,22,ls),
(80,-97,o),
(78,-148,o),
(28,-121,c),
(2,-186,l),
(118,-236,o),
(151,-150,o),
(150,23,cs),
(148,445,l)
);
}
);
userData = {
com.schriftgestaltung.Glyphs.lastChange = "2021-06-18 12:09:59 +0000";
};
width = 500;
}
);
unicode = 956;
},
{
glyphname = nu;
layers = (
{
layerId = m01;
shapes = (
{
closed = 1;
nodes = (
(421,430,l),
(456,430,l),
(459,500,l),
(367,500,l),
(250,85,l),
(132,497,l),
(132,500,l),
(41,500,l),
(43,430,l),
(77,430,l),
(210,0,l),
(290,0,l)
);
}
);
userData = {
com.schriftgestaltung.Glyphs.lastChange = "2021-06-18 13:31:13 +0000";
};
width = 500;
}
);
unicode = 957;
},
{
glyphname = xi;
lastChange = "2021-06-20 06:11:20 +0000";
layers = (
{
layerId = m01;
shapes = (
{
closed = 1;
nodes = (
(124,563,o),
(196,595,o),
(395,651,c),
(384,723,l),
(123,691,l),
(121,707,l),
(40,696,l),
(51,615,l),
(169,633,l),
(91,595,o),
(54,561,o),
(54,512,cs),
(54,437,o),
(104,402,o),
(175,391,c),
(103,378,o),
(58,317,o),
(58,247,cs),
(58,181,o),
(118,104,o),
(255,104,cs),
(329,104,o),
(363,72,o),
(363,17,cs),
(363,-50,o),
(141,-92,o),
(58,-106,c),
(72,-175,l),
(163,-154,o),
(432,-119,o),
(433,17,cs),
(434,128,o),
(351,174,o),
(255,174,cs),
(173,174,o),
(128,206,o),
(128,245,cs),
(128,303,o),
(171,352,o),
(326,365,c),
(321,432,l),
(191,435,o),
(124,463,o),
(124,514,cs)
);
}
);
userData = {
com.schriftgestaltung.Glyphs.lastChange = "2021-06-20 04:21:28 +0000";
};
width = 500;
}
);
unicode = 958;
},
{
glyphname = omicron;
layers = (
{
layerId = m01;
shapes = (
{
closed = 1;
nodes = (
(180,57,o),
(127,134,o),
(127,250,cs),
(127,368,o),
(181,442,o),
(250,442,cs),
(320,442,o),
(373,368,o),
(373,249,cs),
(373,134,o),
(320,57,o),
(250,57,cs)
);
},
{
closed = 1;
nodes = (
(378,-3,o),
(443,98,o),
(443,249,cs),
(443,416,o),
(374,504,o),
(250,504,cs),
(126,504,o),
(57,416,o),
(57,250,cs),
(57,98,o),
(122,-3,o),
(250,-3,cs)
);
}
);
userData = {
com.schriftgestaltung.Glyphs.lastChange = "2021-06-18 13:41:58 +0000";
};
width = 500;
}
);
unicode = 959;
},
{
glyphname = pi;
layers = (
{
layerId = m01;
shapes = (
{
closed = 1;
nodes = (
(170,-2,l),
(170,431,l),
(321,431,l),
(321,84,ls),
(321,34,o),
(361,-7,o),
(447,-7,c),
(447,63,l),
(411,63,o),
(391,70,o),
(391,108,cs),
(391,430,l),
(443,430,l),
(443,500,l),
(57,500,l),
(57,430,l),
(100,430,l),
(100,-2,l)
);
}
);
userData = {
com.schriftgestaltung.Glyphs.lastChange = "2021-06-18 13:57:58 +0000";
};
width = 500;
}
);
unicode = 960;
},
{
glyphname = rho;
layers = (
{
layerId = m01;
shapes = (
{
closed = 1;
nodes = (
(190,55,o),
(157,122,o),
(157,242,cs),
(157,366,o),
(191,429,o),
(274,429,cs),
(358,429,o),
(391,366,o),
(391,242,cs),
(391,120,o),
(358,55,o),
(274,55,cs)
);
},
{
closed = 1;
nodes = (
(155,-203,l),
(157,-123,l),
(157,35,l),
(183,6,o),
(220,-8,o),
(271,-8,cs),
(413,-8,o),
(461,74,o),
(461,243,cs),
(461,418,o),
(413,494,o),
(271,496,cs),
(142,498,o),
(94,409,o),
(92,243,cs),
(87,-123,l),
(74,-123,l),
(71,-203,l)
);
}
);
userData = {
com.schriftgestaltung.Glyphs.lastChange = "2021-06-18 14:01:04 +0000";
};
width = 500;
}
);
unicode = 961;
},
{
glyphname = sigmafinal;
lastChange = "2021-06-20 06:04:07 +0000";
layers = (
{
layerId = m01;
shapes = (
{
closed = 1;
nodes = (
(331,0,o),
(384,-58,o),
(346,-149,c),
(404,-174,l),
(470,-28,o),
(376,69,o),
(247,69,cs),
(166,69,o),
(132,127,o),
(132,247,cs),
(132,374,o),
(171,432,o),
(251,432,cs),
(309,432,o),
(343,397,o),
(357,334,c),
(430,334,l),
(430,457,l),
(376,457,l),
(346,486,o),
(305.02,499,o),
(248,499,cs),
(114,499,o),
(61,426,o),
(61,248,cs),
(61,82,o),
(112,5,o),
(248,2,cs)
);
}
);
userData = {
com.schriftgestaltung.Glyphs.lastChange = "2021-06-20 04:27:25 +0000";
};
width = 500;
}
);
unicode = 962;
},
{
glyphname = sigma;
layers = (
{
layerId = m01;
shapes = (
{
closed = 1;
nodes = (
(180,57,o),
(127,134,o),
(127,250,cs),
(127,368,o),
(181,442,o),
(250,442,cs),
(320,442,o),
(373,368,o),
(373,249,cs),
(373,134,o),
(320,57,o),
(250,57,cs)
);
},
{
closed = 1;
nodes = (
(378,-3,o),
(443,98,o),
(443,249,cs),
(443,416,o),
(374,504,o),
(250,504,cs),
(126,504,o),
(57,416,o),
(57,250,cs),
(57,98,o),
(122,-3,o),
(250,-3,cs)
);
},
{
closed = 1;
nodes = (
(250,442,l),
(403,442,l),
(461,445,l),
(461,518,l),
(403,515,l),
(403,504,l),
(250,504,l)
);
}
);
userData = {
com.schriftgestaltung.Glyphs.lastChange = "2021-06-18 14:06:22 +0000";
};
width = 500;
}
);
unicode = 963;
},
{
glyphname = tau;
layers = (
{
layerId = m01;
shapes = (
{
closed = 1;
nodes = (
(277,428,l),
(423,429,l),
(423,498,l),
(68,498,l),
(68,429,l),
(204,428,l),
(204,184,ls),
(204,56,o),
(221,-2,o),
(313,-2,cs),
(376,-2,o),
(417,42,o),
(465,133,c),
(407,167,l),
(385,124,o),
(344,69,o),
(313,69,cs),
(283,69,o),
(277,106,o),
(277,182,cs)
);
}
);
userData = {
com.schriftgestaltung.Glyphs.lastChange = "2021-06-18 14:04:16 +0000";
};
width = 500;
}
);
unicode = 964;
},
{
glyphname = upsilon;
lastChange = "2021-06-20 06:31:02 +0000";
layers = (
{
layerId = m01;
shapes = (
{
closed = 1;
nodes = (
(135,420,l),
(135,500,l),
(53,500,l),
(55,420,l),
(69,420,l),
(95,257,ls),
(116,128,o),
(116,-12,o),
(235,-10,cs),
(346,-8,o),
(393,138,o),
(397,257,cs),
(402,422,l),
(416,422,l),
(419,502,l),
(345,502,l),
(335,257,ls),
(330,145,o),
(299,60,o),
(235,60,cs),
(188,60,o),
(177,145,o),
(160,257,cs)
);
}
);
userData = {
com.schriftgestaltung.Glyphs.lastChange = "2021-06-18 14:08:52 +0000";
};
width = 500;
}
);
unicode = 965;
},
{
glyphname = phi;
layers = (
{
layerId = m01;
shapes = (
{
closed = 1;
nodes = (
(185,568,l),
(185,500,l),
(215,500,l),
(215,439,l),
(112,427,o),
(52,364,o),
(52,218,cs),
(52,84,o),
(109,11,o),
(215,-2,c),
(215,-63,l),
(188,-63,l),
(188,-132,l),
(312,-132,l),
(312,-63,l),
(285,-63,l),
(285,-2,l),
(391,11,o),
(448,84,o),
(448,217,cs),
(448,363,o),
(388,427,o),
(285,439,c),
(285,500,l),
(315,500,l),
(315,568,l)
);
},
{
closed = 1;
nodes = (
(122,313,o),
(162,357,o),
(215,369,c),
(215,66,l),
(162,79,o),
(122,124,o),
(122,218,cs)
);
},
{
closed = 1;
nodes = (
(285,370,l),
(338,357,o),
(378,313,o),
(378,217,cs),
(378,125,o),
(338,79,o),
(285,66,c)
);
}
);
userData = {
com.schriftgestaltung.Glyphs.lastChange = "2021-06-18 13:59:24 +0000";
};
width = 500;
}
);
unicode = 966;
},
{
glyphname = chi;
layers = (
{
layerId = m01;
shapes = (
{
closed = 1;
nodes = (
(449,-146,l),
(446,-76,l),
(398,-80,l),
(148,509,l),
(51,501,l),
(53,431,l),
(100,435,l),
(351,-154,l)
);
},
{
closed = 1;
nodes = (
(368,504,l),
(54,-151,l),
(132,-151,l),
(446,504,l)
);
}
);
userData = {
com.schriftgestaltung.Glyphs.lastChange = "2021-06-18 13:50:59 +0000";
};
width = 500;
}
);
unicode = 967;
},
{
glyphname = psi;
layers = (
{
layerId = m01;
shapes = (
{
closed = 1;
nodes = (
(240,434,l),
(265,434,l),
(265,-127,l),
(240,-127,l),
(240,-195,l),
(360,-195,l),
(360,-126,l),
(335,-127,l),
(335,434,l),
(360,434,l),
(360,504,l),
(240,504,l)
);
},
{
closed = 1;
nodes = (
(428.986,435,ls),
(432,217,o),
(411,66,o),
(300,66,cs),
(179.367,66,o),
(172,216,o),
(172,435,cs),
(172,504,l),
(80,504,l),
(80,434,l),
(102,434,l),
(102.07,202.749,o),
(114.535,-14,o),
(300,-14,cs),
(477.743,-14,o),
(497.942,203.371,o),
(498,434,c),
(520,434,l),
(520,504,l),
(428,504,l)
);
}
);
userData = {
com.schriftgestaltung.Glyphs.lastChange = "2021-06-18 13:53:27 +0000";
};
width = 600;
}
);
unicode = 968;
},
{
glyphname = omega;
lastChange = "2021-06-20 06:29:46 +0000";
layers = (
{
layerId = m01;
shapes = (
{
closed = 1;
nodes = (
(206,1,o),
(247,31,o),
(257,88,c),
(278,294,l),
(217,294,l),
(220,231,o),
(217,71,o),
(174,71,cs),
(75,71,o),
(79,315,o),
(171,419,c),
(173,500,l),
(64,499,l),
(66,419,l),
(87,419,l),
(-7,272,o),
(11,1,o),
(174,1,cs)
);
},
{
closed = 1;
nodes = (
(489,1,o),
(507,272,o),
(413,419,c),
(434,419,l),
(436,499,l),
(327,500,l),
(329,419,l),
(421,315,o),
(425,71,o),
(326,71,cs),
(283,71,o),
(280,231,o),
(283,294,c),
(222,294,l),
(243,88,l),
(253,31,o),
(294,1,o),
(326,1,cs)
);
}
);
userData = {
com.schriftgestaltung.Glyphs.lastChange = "2021-06-18 14:03:41 +0000";
};
width = 500;
}
);
unicode = 969;
},
{
glyphname = zero;
layers = (
{
layerId = m01;
shapes = (
{
closed = 1;
nodes = (
(209,391,o),
(200,382,o),
(200,375,cs),
(200,306,ls),
(200,299,o),
(209,290,o),
(216,290,cs),
(284,290,ls),
(291,290,o),
(300,299,o),
(300,306,cs),
(300,375,ls),
(300,382,o),
(291,391,o),
(284,391,cs),
(216,391,ls)
);
},
{
closed = 1;
nodes = (
(401,694,o),
(447,563,o),
(447,343,cs),
(447,143,o),
(412,-4,o),
(245,-4,cs),
(78,-4,o),
(43,143,o),
(43,343,cs),
(43,563,o),
(89,694,o),
(245,694,cs)
);
},
{
closed = 1;
nodes = (
(113,130,o),
(164,68,o),
(245,67,cs),
(326,68,o),
(378,130,o),
(378,343,cs),
(378,556,o),
(323,624,o),
(245,624,cs),
(164,624,o),
(113,556,o),
(113,343,cs)
);
}
);
width = 501;
}
);
unicode = 48;
},
{
glyphname = one;
layers = (
{
layerId = m01;
shapes = (
{
closed = 1;
nodes = (
(416,61,l),
(294,60,l),
(294,705,l),
(224,705,l),
(80,578,l),
(127,524,l),
(222,610,l),
(224,60,l),
(100,61,l),
(100,-9,l),
(416,-9,l)
);
}
);
width = 500;
}
);
unicode = 49;
},
{
glyphname = two;
layers = (
{
layerId = m01;
shapes = (
{
closed = 1;
nodes = (
(436,112,l),
(365,112,l),
(365,60,l),
(154,60,l),
(350,313,ls),
(454,447,o),
(481,700,o),
(257,700,cs),
(137,700,o),
(70,625,o),
(59,527,c),
(130,516,l),
(136,582,o),
(184,630,o),
(256,630,cs),
(380,630,o),
(395,486,o),
(291,352,cs),
(64,60,l),
(64,0,l),
(436,0,l)
);
}
);
width = 500;
}
);
unicode = 50;
},
{
glyphname = three;
layers = (
{
layerId = m01;
shapes = (
{
closed = 1;
nodes = (
(252,421,l),
(429,629,l),
(429,699,l),
(66,699,l),
(66,558,l),
(136,558,l),
(136,629,l),
(334,629,l),
(157,421,l),
(157,355,l),
(252,355,l)
);
},
{
closed = 1;
nodes = (
(250,355,l),
(328,355,o),
(369,335,o),
(369,214,cs),
(369,97,o),
(330,58,o),
(252,58,cs),
(186,58,o),
(148,100,o),
(139,180,c),
(69,181,l),
(81,56,o),
(133,-8,o),
(249,-8,cs),
(382,-8,o),
(439,53,o),
(439,215,cs),
(439,361,o),
(382,421,o),
(250,421,c)
);
}
);
width = 500;
}
);
unicode = 51;
},
{
glyphname = four;
layers = (
{
layerId = m01;
shapes = (
{
closed = 1;
nodes = (
(432,255,l),
(139,255,l),
(399,700,l),
(314,700,l),
(54,255,l),
(54,185,l),
(432,185,l)
);
},
{
closed = 1;
nodes = (
(432,69,l),
(395,69,l),
(395,423,l),
(325,423,l),
(325,69,l),
(233,69,l),
(233,-1,l),
(432,0,l)
);
}
);
width = 500;
}
);
unicode = 52;
},
{
glyphname = five;
layers = (
{
layerId = m01;
shapes = (
{
closed = 1;
nodes = (
(157,304,l),
(168,376,o),
(196,411,o),
(257,411,cs),
(335,411,o),
(372,355,o),
(372,234,cs),
(372,117,o),
(340,55,o),
(262,55,cs),
(196,55,o),
(164,100,o),
(155,180,c),
(85,181,l),
(97,56,o),
(143,-8,o),
(259,-8,cs),
(392,-8,o),
(442,73,o),
(442,235,cs),
(442,405,o),
(387,478,o),
(254,478,cs),
(213,478,o),
(181,471,o),
(157,455,c),
(157,630,l),
(354,630,l),
(354,580,l),
(423,580,l),
(424,700,l),
(87,700,l),
(87,305,l)
);
}
);
width = 500;
}
);
unicode = 53;
},
{
glyphname = six;
layers = (
{
layerId = m01;
shapes = (
{
closed = 1;
nodes = (
(169,60,o),
(135,104,o),
(135,205,cs),
(135,312,o),
(170,359,o),
(246,359,cs),
(316,359,o),
(352,304,o),
(352,205,cs),
(352,111,o),
(310,60,o),
(246,60,cs)
);
},
{
closed = 1;
nodes = (
(61,66,o),
(112,-8,o),
(244,-8,cs),
(361,-8,o),
(422,72,o),
(422,206,cs),
(422,348,o),
(367,421,o),
(244,421,cs),
(214.375,421,o),
(190,417,o),
(168,410,c),
(215,522,o),
(263,610,o),
(312,700,c),
(234,700,l),
(185,616,o),
(176,595,o),
(117,469,cs),
(88,406,o),
(61,306,o),
(61,206,cs)
);
}
);
width = 500;
}
);
unicode = 54;
},
{
glyphname = seven;
layers = (
{
layerId = m01;
shapes = (
{
closed = 1;
nodes = (
(433,638,l),
(433,699,l),
(71,699,l),
(71,554,l),
(140,554,l),
(140,638,l),
(356,638,l),
(147,1,l),
(223,1,l)
);
}
);
width = 500;
}
);
unicode = 55;
},
{
glyphname = eight;
layers = (
{
layerId = m01;
shapes = (
{
closed = 1;
nodes = (
(323,334,o),
(375,258,o),
(375,198,cs),
(375,109,o),
(306,68,o),
(248,68,cs),
(185,68,o),
(120,109,o),
(120,198,cs),
(120,262,o),
(170,334,o),
(248,334,cs)
);
},
{
closed = 1;
nodes = (
(111,397,o),
(45,298,o),
(45,197,cs),
(45,69,o),
(127,-1,o),
(250,-1,cs),
(368,-1,o),
(455,69,o),
(455,197,cs),
(455,294,o),
(386,397,o),
(250,397,cs)
);
},
{
closed = 1;
nodes = (
(173,398,o),
(144,457,o),
(144,523,cs),
(144,577,o),
(189,625,o),
(248,625,cs),
(306,625,o),
(351,577,o),
(351,523,cs),
(351,461,o),
(322,398,o),
(248,398,cs)
);
},
{
closed = 1;
nodes = (
(376,351,o),
(425,429,o),
(425,524,cs),
(425,614,o),
(354,693,o),
(250,693,cs),
(145,693,o),
(75,614,o),
(75,524,cs),
(75,426,o),
(123,351,o),
(250,351,cs)
);
}
);
width = 500;
}
);
unicode = 56;
},
{
glyphname = nine;
layers = (
{
layerId = m01;
shapes = (
{
closed = 1;
nodes = (
(321,631,o),
(364,588,o),
(364,487,cs),
(364,485.986,ls),
(364,402,o),
(345,340,o),
(251,340,cs),
(187,340,o),
(137,400,o),
(137,487,cs),
(137,572,o),
(189,631,o),
(251,631,cs)
);
},
{
closed = 1;
nodes = (
(67,356,o),
(133,271,o),
(253,271,cs),
(279.376,271,o),
(302.37,273.556,o),
(322.285,278.825,c),
(318.01,266.534,o),
(313.554,254.836,o),
(309,244,cs),
(272,155,o),
(226,88,o),
(172,-8,c),
(254,-8,l),
(306,76,o),
(321,97,o),
(380,223,cs),
(422,313,o),
(433,422,o),
(433,486,cs),
(433,626,o),
(377,700,o),
(253,700,cs),
(134,700,o),
(67,611,o),
(67,486,cs)
);
}
);
width = 500;
}
);
unicode = 57;
},
{
glyphname = .notdef;
layers = (
{
layerId = m01;
shapes = (
{
closed = 1;
nodes = (
(427,700,l),
(73,700,l),
(73,0,l),
(427,0,l)
);
},
{
closed = 1;
nodes = (
(295,671,l),
(384,671,l),
(102,317,l),
(102,429,l)
);
},
{
closed = 1;
nodes = (
(177,671,l),
(265,671,l),
(102,466,l),
(102,578,l)
);
},
{
closed = 1;
nodes = (
(146,671,l),
(102,615,l),
(102,671,l)
);
},
{
closed = 1;
nodes = (
(398,650,l),
(398,539,l),
(102,169,l),
(102,280,l)
);
},
{
closed = 1;
nodes = (
(398,502,l),
(398,390,l),
(109,29,l),
(102,29,l),
(102,131,l)
);
},
{
closed = 1;
nodes = (
(398,242,l),
(228,29,l),
(139,29,l),
(398,353,l)
);
},
{
closed = 1;
nodes = (
(398,92,l),
(347,29,l),
(257,29,l),
(398,205,l)
);
},
{
closed = 1;
nodes = (
(398,55,l),
(398,29,l),
(376,29,l)
);
}
);
width = 500;
}
);
},
{
glyphname = period;
layers = (
{
layerId = m01;
shapes = (
{
closed = 1;
nodes = (
(200,0,l),
(308,0,l),
(308,108,l),
(200,108,l)
);
}
);
width = 500;
}
);
unicode = 46;
},
{
glyphname = comma;
layers = (
{
layerId = m01;
shapes = (
{
closed = 1;
nodes = (
(200,5,ls),
(200,-30,o),
(193,-63,o),
(160,-97,c),
(200,-135,l),
(266,-88,o),
(301,-51,o),
(304,11,cs),
(308,108,l),
(200,108,l)
);
}
);
width = 500;
}
);
unicode = 44;
},
{
glyphname = exclam;
layers = (
{
layerId = m01;
shapes = (
{
closed = 1;
nodes = (
(220,213,l),
(280,212,l),
(296,700,l),
(204,701,l)
);
},
{
closed = 1;
nodes = (
(206,0,l),
(294,0,l),
(294,91,l),
(206,91,l)
);
}
);
width = 500;
}
);
unicode = 33;
},
{
glyphname = question;
layers = (
{
layerId = m01;
shapes = (
{
closed = 1;
nodes = (
(155,555,l),
(191,577,l),
(178,606,l),
(281,674,o),
(356,597,o),
(356,518,cs),
(356,432,o),
(223,340,o),
(218,199,c),
(288,199,l),
(299,342,o),
(426,407,o),
(426,518,cs),
(426,688,o),
(229,757,o),
(95,631,c)
);
},
{
closed = 1;
nodes = (
(211,4,l),
(295,4,l),
(295,92,l),
(211,92,l)
);
}
);
userData = {
com.schriftgestaltung.Glyphs.lastChange = "2021-06-17 15:21:11 +0000";
};
width = 500;
}
);
unicode = 63;
},
{
glyphname = questiondown;
layers = (
{
layerId = m01;
shapes = (
{
closed = 1;
nodes = (
(207,581,o),
(181,554,o),
(181,522,cs),
(181,490,o),
(207,463,o),
(240,463,cs),
(272,463,o),
(299,490,o),
(299,522,cs),
(299,554,o),
(272,581,o),
(240,581,cs)
);
},
{
closed = 1;
nodes = (
(232,-173,o),
(422,-114,o),
(422,56,cs),
(422,173,o),
(321,192,o),
(282,351,c),
(212,334,l),
(245,177,o),
(352,136,o),
(352,44,cs),
(352,-15,o),
(268,-105,o),
(133,4,c),
(98,-47,l)
);
}
);
width = 500;
}
);
unicode = 191;
},
{
glyphname = periodcentered;
layers = (
{
layerId = m01;
shapes = (
{
closed = 1;
nodes = (
(277,290,o),
(300,313,o),
(300,340,cs),
(300,367,o),
(277,390,o),
(250,390,cs),
(222,390,o),
(200,367,o),
(200,340,cs),
(200,313,o),
(222,290,o),
(250,290,cs)
);
}
);
width = 500;
}
);
unicode = 183;
},
{
glyphname = bullet;
layers = (
{
layerId = m01;
shapes = (
{
closed = 1;
nodes = (
(289,269,o),
(321,301,o),
(321,340,cs),
(321,379,o),
(289,411,o),
(250,411,cs),
(210,411,o),
(179,379,o),
(179,340,cs),
(179,301,o),
(210,269,o),
(250,269,cs)
);
}
);
width = 500;
}
);
unicode = 8226;
},
{
glyphname = asterisk;
layers = (
{
layerId = m01;
shapes = (
{
closed = 1;
nodes = (
(263,331,l),
(265,360,o),
(278,397,o),
(279,426,cs),
(284,532,l),
(212,532,l),
(217,426,ls),
(218,397,o),
(232,360,o),
(234,331,c)
);
},
{
closed = 1;
nodes = (
(253,317,l),
(282,324,o),
(321,323,o),
(349,331,cs),
(451,359,l),
(429,428,l),
(330,390,l),
(302,379,o),
(271,356,o),
(245,345,c)
);
},
{
closed = 1;
nodes = (
(236,321,l),
(251,297,o),
(263,260,o),
(279,235,cs),
(337,146,l),
(395,189,l),
(329,271,ls),
(311,294,o),
(278,316,o),
(259,338,c)
);
},
{
closed = 1;
nodes = (
(236,340,l),
(217,318,o),
(185,296,o),
(167,273,cs),
(100,190,l),
(159,148,l),
(217,236,ls),
(233,260,o),
(244,299,o),
(259,323,c)
);
},
{
closed = 1;
nodes = (
(253,346,l),
(226,357,o),
(195,380,o),
(168,390,cs),
(69,428,l),
(46,359,l),
(149,331,ls),
(177,323,o),
(216,325,o),
(244,318,c)
);
}
);
width = 500;
}
);
unicode = 42;
},
{
glyphname = numbersign;
layers = (
{
layerId = m01;
shapes = (
{
closed = 1;
nodes = (
(299,53,l),
(361,53,l),
(361,627,l),
(299,627,l)
);
},
{
closed = 1;
nodes = (
(139,53,l),
(201,53,l),
(201,627,l),
(139,627,l)
);
},
{
closed = 1;
nodes = (
(63,483,l),
(63,421,l),
(437,421,l),
(437,483,l)
);
},
{
closed = 1;
nodes = (
(63,259,l),
(63,197,l),
(437,197,l),
(437,259,l)
);
}
);
width = 500;
}
);
unicode = 35;
},
{
glyphname = backslash;
layers = (
{
layerId = m01;
shapes = (
{
closed = 1;
nodes = (
(86,701,l),
(340,1,l),
(413,1,l),
(159,701,l)
);
}
);
width = 500;
}
);
unicode = 92;
},
{
glyphname = hyphen;
layers = (
{
layerId = m01;
shapes = (
{
closed = 1;
nodes = (
(50,305,l),
(450,305,l),
(450,375,l),
(50,375,l)
);
}
);
width = 500;
}
);
unicode = 45;
},
{
glyphname = underscore;
layers = (
{
layerId = m01;
shapes = (
{
closed = 1;
nodes = (
(80,-12,l),
(420,-12,l),
(420,60,l),
(80,60,l)
);
}
);
width = 500;
}
);
unicode = 95;
},
{
glyphname = parenleft;
layers = (
{
layerId = m01;
shapes = (
{
closed = 1;
nodes = (
(182,695,o),
(89,558,o),
(89,340,c),
(159,340,l),
(157,505,o),
(226,643,o),
(400,700,c),
(374,761,l)
);
},
{
closed = 1;
nodes = (
(400,-20,l),
(226,37,o),
(157,175,o),
(159,340,c),
(89,340,l),
(89,122,o),
(182,-15,o),
(374,-81,c)
);
}
);
width = 500;
}
);
unicode = 40;
},
{
glyphname = braceleft;
layers = (
{
layerId = m01;
shapes = (
{
closed = 1;
nodes = (
(290,740,o),
(189,688,o),
(183,552,cs),
(178,447,o),
(156,407,o),
(71,388,c),
(71,311,l),
(172,334,o),
(242,345,o),
(246,508,cs),
(249,620,o),
(306,672,o),
(380,679,c),
(381,757,l)
);
},
{
closed = 1;
nodes = (
(380,1,l),
(311,8,o),
(249,59,o),
(246,172,cs),
(242,335,o),
(174,350,o),
(71,373,c),
(71,292,l),
(156,273,o),
(178,233,o),
(183,128,cs),
(189,-8,o),
(287,-60,o),
(378,-77,c)
);
}
);
width = 500;
}
);
unicode = 123;
},
{
glyphname = bracketleft;
layers = (
{
layerId = m01;
shapes = (
{
closed = 1;
nodes = (
(411,20,l),
(195,20,l),
(195,660,l),
(411,660,l),
(411,727,l),
(126,727,l),
(126,-47,l),
(411,-47,l)
);
}
);
width = 500;
}
);
unicode = 91;
},
{
glyphname = bracketright;
layers = (
{
layerId = m01;
shapes = (
{
closed = 1;
nodes = (
(374,-47,l),
(374,727,l),
(89,727,l),
(89,657,l),
(296,657,l),
(296,23,l),
(89,23,l),
(89,-47,l)
);
}
);
width = 500;
}
);
unicode = 93;
},
{
glyphname = quotedbl;
layers = (
{
layerId = m01;
shapes = (
{
closed = 1;
nodes = (
(127,463,l),
(183,463,l),
(195,700,l),
(115,700,l)
);
},
{
closed = 1;
nodes = (
(317,463,l),
(373,463,l),
(385,700,l),
(305,700,l)
);
}
);
width = 500;
}
);
unicode = 34;
},
{
glyphname = quotesingle;
layers = (
{
layerId = m01;
shapes = (
{
closed = 1;
nodes = (
(218,463,l),
(282,463,l),
(294,700,l),
(206,700,l)
);
}
);
userData = {
com.schriftgestaltung.Glyphs.lastChange = "2021-06-17 15:21:36 +0000";
};
width = 500;
}
);
unicode = 39;
},
{
glyphname = at;
layers = (
{
layerId = m01;
shapes = (
{
closed = 1;
nodes = (
(452,587,o),
(385,651,o),
(258,651,cs),
(131,651,o),
(61,523,o),
(61,299,cs),
(61,67,o),
(129,-41,o),
(258,-41,cs),
(410,-41,l),
(408,29,l),
(261,27,ls),
(189,26,o),
(131,131,o),
(131,296,cs),
(131,473,o),
(178,581,o),
(261,581,cs),
(318.63,581,o),
(355,542,o),
(372,469,c),
(129,572,o),
(162.994,127,o),
(330,127,cs),
(388.988,127,o),
(448.943,176.294,o),
(450.948,349.002,cs),
(451,350.806,o),
(450.997,352.601,o),
(450.992,354.386,cs),
(451,358,ls)
);
},
{
closed = 1;
nodes = (
(265,197,o),
(192,507,o),
(381,397,c),
(382,379,o),
(383,372,o),
(382.99,355.894,cs),
(383,262,o),
(354.643,197.032,o),
(322,200,c)
);
}
);
userData = {
com.schriftgestaltung.Glyphs.lastChange = "2021-06-19 07:36:39 +0000";
};
width = 500;
}
);
unicode = 64;
},
{
glyphname = ampersand;
layers = (
{
layerId = m01;
shapes = (
{
closed = 1;
nodes = (
(452,0,l),
(319,250,o),
(209,466,o),
(187,531,cs),
(166,592,o),
(214,633,o),
(270,631,cs),
(332,629,o),
(351,578,o),
(348,498,c),
(414,500,l),
(422,613,o),
(373,695,o),
(269,700,cs),
(170,704,o),
(85,618,o),
(109,532,cs),
(137,431,o),
(270,193,o),
(368,0,c)
);
},
{
closed = 1;
nodes = (
(179,407,l),
(120,338,o),
(80,224,o),
(75,174,cs),
(69,72,o),
(120,5,o),
(240,0,cs),
(366,-5,o),
(420,170,o),
(432,274,c),
(361,274,l),
(359,204,o),
(319,74,o),
(243,74,cs),
(174,74,o),
(140,102,o),
(149,180,cs),
(152,204,o),
(181,278,o),
(216,323,c)
);
}
);
userData = {
com.schriftgestaltung.Glyphs.lastChange = "2021-06-19 07:35:37 +0000";
};
width = 500;
}
);
unicode = 38;
},
{
glyphname = copyright;
layers = (
{
layerId = m01;
shapes = (
{
closed = 1;
nodes = (
(365,125,o),
(465,224,o),
(465,340,cs),
(465,455,o),
(365,555,o),
(250,555,cs),
(134,555,o),
(35,455,o),
(35,340,cs),
(35,224,o),
(134,125,o),
(250,125,cs)
);
},
{
closed = 1;
nodes = (
(159,175,o),
(85,249,o),
(85,340,cs),
(85,430,o),
(159,505,o),
(250,505,cs),
(340,505,o),
(415,430,o),
(415,340,cs),
(415,249,o),
(340,175,o),
(250,175,cs)
);
},
{
closed = 1;
nodes = (
(346,269,l),
(324,240,o),
(289,220,o),
(250,220,cs),
(184,220,o),
(130,274,o),
(130,340,cs),
(130,405,o),
(184,460,o),
(250,460,cs),
(287,460,o),
(322,441,o),
(345,413,c),
(311,386,l),
(296,404,o),
(274,413,o),
(250,413,cs),
(206,413,o),
(180,383,o),
(180,340,cs),
(180,296,o),
(206,268,o),
(250,268,cs),
(275,268,o),
(297,279,o),
(312,298,c)
);
}
);
userData = {
com.schriftgestaltung.Glyphs.lastChange = "2021-06-19 07:36:11 +0000";
};
width = 500;
}
);
unicode = 169;
},
{
glyphname = bar;
layers = (
{
layerId = m01;
shapes = (
{
closed = 1;
nodes = (
(215,-63,l),
(285,-63,l),
(285,743,l),
(215,743,l)
);
}
);
width = 500;
}
);
unicode = 124;
},
{
glyphname = greater_equal.liga;
layers = (
{
layerId = m01;
shapes = (
{
closed = 1;
nodes = (
(857,452,l),
(143,607,l),
(143,527,l),
(857,377,l)
);
},
{
closed = 1;
nodes = (
(143,309,l),
(143,229,l),
(857,372,l),
(857,447,l)
);
},
{
closed = 1;
nodes = (
(143,153,l),
(143,73,l),
(857,216,l),
(857,291,l)
);
}
);
width = 1000;
}
);
},
{
glyphname = less_hyphen.liga;
layers = (
{
layerId = m01;
shapes = (
{
closed = 1;
nodes = (
(161,308,l),
(950,303,l),
(950,377,l),
(161,372,l)
);
},
{
pos = (16,0);
ref = less;
}
);
width = 1000;
}
);
},
{
glyphname = dollar;
layers = (
{
layerId = m01;
shapes = (
{
closed = 1;
nodes = (
(428,439,l),
(408.917,524.006,o),
(360.49,569.135,o),
(285.331,580.261,c),
(285,699,l),
(215,699,l),
(215.33,580.661,l),
(76.741,559.437,o),
(-4.46,400.313,o),
(155,328,c),
(216.092,307.103,l),
(216.523,152.354,l),
(175.487,163.143,o),
(155.246,190.515,o),
(144,237,c),
(72,218,l),
(91.257,132.218,o),
(140.396,87.044,o),
(216.734,76.443,c),
(217,-19,l),
(287,-19,l),
(286.734,76.666,l),
(424.061,99.143,o),
(503.667,257.046,o),
(345,329,c),
(285.974,349.203,l),
(285.543,504.126,l),
(325.532,492.995,o),
(345.668,465.757,o),
(356,420,c)
);
},
{
closed = 1;
nodes = (
(114.389,417.629,o),
(136.093,497.362,o),
(215.53,508.661,c),
(215.906,373.922,l),
(184,387,ls)
);
},
{
closed = 1;
nodes = (
(316,270,ls),
(385.064,239.612,o),
(365.091,160.888,o),
(286.533,148.618,c),
(286.161,282.277,l)
);
}
);
width = 500;
}
);
unicode = 36;
},
{
glyphname = leftcurlybracketlowerhook;
lastChange = "2021-06-20 06:16:25 +0000";
layers = (
{
layerId = m01;
shapes = (
{
closed = 1;
nodes = (
(485,-110,l),
(485,-30,l),
(440,-30,ls),
(377,-30,o),
(345,-1,o),
(345,56,cs),
(345,1020,l),
(255,1020,l),
(255,56,ls),
(255,-49,o),
(322,-110,o),
(440,-110,cs)
);
}
);
width = 600;
}
);
unicode = 9129;
},
{
glyphname = leftcurlybracketmiddlepiece;
lastChange = "2021-06-20 06:16:01 +0000";
layers = (
{
layerId = m01;
shapes = (
{
closed = 1;
nodes = (
(345,-300,l),
(345,220,ls),
(345,306,o),
(299,363,o),
(215,363,c),
(215,358,l),
(300,358,o),
(345,413,o),
(345,500,cs),
(345,1020,l),
(255,1020,l),
(255,500,ls),
(255,429,o),
(242,400,o),
(155,400,cs),
(45,400,l),
(45,320,l),
(155,320,ls),
(241,320,o),
(255,291,o),
(255,220,cs),
(255,-300,l)
);
}
);
width = 600;
}
);
unicode = 9128;
},
{
glyphname = leftcurlybracketupperhook;
lastChange = "2021-06-20 06:16:44 +0000";
layers = (
{
layerId = m01;
shapes = (
{
closed = 1;
nodes = (
(345,-300,l),
(345,664,ls),
(345,721,o),
(377,750,o),
(440,750,cs),
(485,750,l),
(485,830,l),
(440,830,ls),
(322,830,o),
(255,769,o),
(255,664,cs),
(255,-300,l)
);
}
);
width = 600;
}
);
unicode = 9127;
},
{
glyphname = minus;
layers = (
{
layerId = m01;
shapes = (
{
closed = 1;
nodes = (
(50,305,l),
(450,305,l),
(450,375,l),
(50,375,l)
);
}
);
width = 500;
}
);
unicode = 8722;
},
{
glyphname = multiply;
layers = (
{
layerId = m01;
shapes = (
{
closed = 1;
nodes = (
(76,464,l),
(375,168,l),
(423,216,l),
(124,512,l)
);
},
{
closed = 1;
nodes = (
(380,518,l),
(72,210,l),
(120,162,l),
(429,470,l)
);
}
);
width = 500;
}
);
unicode = 215;
},
{
glyphname = divide;
layers = (
{
layerId = m01;
shapes = (
{
closed = 1;
nodes = (
(50,304,l),
(450,305,l),
(450,375,l),
(50,374,l)
);
},
{
closed = 1;
nodes = (
(287,437,o),
(308,460,o),
(308,496,cs),
(308,532,o),
(287,553,o),
(251,553,cs),
(214,553,o),
(192,532,o),
(192,496,cs),
(192,460,o),
(214,437,o),
(251,437,cs)
);
},
{
closed = 1;
nodes = (
(287,124,o),
(308,147,o),
(308,183,cs),
(308,219,o),
(287,240,o),
(251,240,cs),
(214,240,o),
(192,219,o),
(192,183,cs),
(192,147,o),
(214,124,o),
(251,124,cs)
);
}
);
width = 500;
}
);
unicode = 247;
},
{
glyphname = notequal;
layers = (
{
layerId = m01;
shapes = (
{
closed = 1;
nodes = (
(94,136,l),
(175,137,l),
(406,544,l),
(325,544,l)
);
},
{
ref = equal;
}
);
width = 500;
}
);
unicode = 8800;
},
{
glyphname = greater;
layers = (
{
layerId = m01;
shapes = (
{
closed = 1;
nodes = (
(456,380,l),
(56,529,l),
(56,449,l),
(456,305,l)
);
},
{
closed = 1;
nodes = (
(56,231,l),
(56,151,l),
(456,300,l),
(456,375,l)
);
}
);
width = 500;
}
);
unicode = 62;
},
{
glyphname = greaterequal;
layers = (
{
layerId = m01;
shapes = (
{
pos = (0,79);
ref = greater;
},
{
closed = 1;
nodes = (
(56,152,l),
(56,72,l),
(456,221,l),
(456,296,l)
);
}
);
width = 500;
}
);
unicode = 8805;
},
{
glyphname = asciitilde;
layers = (
{
layerId = m01;
shapes = (
{
closed = 1;
nodes = (
(334,260,o),
(408,280,o),
(465,340,c),
(420,391,l),
(372,341,o),
(322,341,o),
(243,382,cs),
(166,420,o),
(92,399,o),
(35,339,c),
(80,288,l),
(128,338,o),
(178,342,o),
(257,297,c)
);
}
);
width = 500;
}
);
unicode = 126;
},
{
glyphname = asciicircum;
layers = (
{
layerId = m01;
shapes = (
{
closed = 1;
nodes = (
(285,664,l),
(215,664,l),
(319,474,l),
(389,474,l)
);
},
{
closed = 1;
nodes = (
(285,664,l),
(215,664,l),
(111,474,l),
(181,474,l)
);
}
);
width = 500;
}
);
unicode = 94;
},
{
glyphname = percent;
layers = (
{
layerId = m01;
shapes = (
{
closed = 1;
nodes = (
(89,0,l),
(166,0,l),
(422,700,l),
(345,700,l)
);
},
{
closed = 1;
nodes = (
(345,0,l),
(422,0,l),
(422,170,l),
(345,170,l)
);
},
{
closed = 1;
nodes = (
(89,530,l),
(166,530,l),
(166,700,l),
(89,700,l)
);
}
);
width = 500;
}
);
unicode = 37;
},
{
glyphname = perthousand;
layers = (
{
layerId = m01;
shapes = (
{
closed = 1;
nodes = (
(70,0,l),
(147,0,l),
(359,700,l),
(282,700,l)
);
},
{
closed = 1;
nodes = (
(363,0,l),
(440,0,l),
(440,170,l),
(363,170,l)
);
},
{
closed = 1;
nodes = (
(76,530,l),
(153,530,l),
(153,700,l),
(76,700,l)
);
},
{
closed = 1;
nodes = (
(237,0,l),
(314,0,l),
(314,170,l),
(237,170,l)
);
}
);
width = 500;
}
);
unicode = 8240;
},
{
glyphname = upArrow;
layers = (
{
layerId = m01;
shapes = (
{
closed = 1;
nodes = (
(285,130,l),
(285,398.197,l),
(345,290,l),
(413,329,l),
(285,550,l),
(215,550,l),
(87,329,l),
(155,290,l),
(215,397.317,l),
(215,130,l)
);
}
);
userData = {
com.schriftgestaltung.Glyphs.lastChange = "2021-06-17 15:24:01 +0000";
};
width = 500;
}
);
unicode = 8593;
},
{
glyphname = northEastArrow;
layers = (
{
layerId = m01;
shapes = (
{
closed = 1;
nodes = (
(126,167,l),
(316.301,357.301,l),
(282,237,l),
(357,217,l),
(423,464,l),
(374,513,l),
(127,447,l),
(147,372,l),
(266.417,405.417,l),
(77,216,l)
);
}
);
userData = {
com.schriftgestaltung.Glyphs.lastChange = "2021-06-17 15:24:07 +0000";
};
width = 500;
}
);
unicode = 8599;
},
{
glyphname = rightArrow;
layers = (
{
layerId = m01;
shapes = (
{
closed = 1;
nodes = (
(40,305,l),
(308.197,305,l),
(200,245,l),
(239,177,l),
(460,305,l),
(460,375,l),
(239,503,l),
(200,435,l),
(307.317,375,l),
(40,375,l)
);
}
);
userData = {
com.schriftgestaltung.Glyphs.lastChange = "2021-06-17 15:24:12 +0000";
};
width = 500;
}
);
unicode = 8594;
},
{
glyphname = southEastArrow;
layers = (
{
layerId = m01;
shapes = (
{
closed = 1;
nodes = (
(77,464,l),
(267.301,273.699,l),
(147,308,l),
(127,233,l),
(374,167,l),
(423,216,l),
(357,463,l),
(282,443,l),
(315.417,323.583,l),
(126,513,l)
);
}
);
userData = {
com.schriftgestaltung.Glyphs.lastChange = "2021-06-17 15:24:17 +0000";
};
width = 500;
}
);
unicode = 8600;
},
{
glyphname = downArrow;
layers = (
{
layerId = m01;
shapes = (
{
closed = 1;
nodes = (
(215,550,l),
(215,281.803,l),
(155,390,l),
(87,351,l),
(215,130,l),
(285,130,l),
(413,351,l),
(345,390,l),
(285,282.683,l),
(285,550,l)
);
}
);
userData = {
com.schriftgestaltung.Glyphs.lastChange = "2021-06-17 15:24:22 +0000";
};
width = 500;
}
);
unicode = 8595;
},
{
glyphname = southWestArrow;
layers = (
{
layerId = m01;
shapes = (
{
closed = 1;
nodes = (
(374,513,l),
(183.699,322.699,l),
(218,443,l),
(143,463,l),
(77,216,l),
(126,167,l),
(373,233,l),
(353,308,l),
(233.583,274.583,l),
(423,464,l)
);
}
);
userData = {
com.schriftgestaltung.Glyphs.lastChange = "2021-06-17 15:24:27 +0000";
};
width = 500;
}
);
unicode = 8601;
},
{
glyphname = leftArrow;
layers = (
{
layerId = m01;
shapes = (
{
closed = 1;
nodes = (
(460,375,l),
(191.803,375,l),
(300,435,l),
(261,503,l),
(40,375,l),
(40,305,l),
(261,177,l),
(300,245,l),
(192.683,305,l),
(460,305,l)
);
}
);
userData = {
com.schriftgestaltung.Glyphs.lastChange = "2021-06-17 15:24:33 +0000";
};
width = 500;
}
);
unicode = 8592;
},
{
glyphname = northWestArrow;
layers = (
{
layerId = m01;
shapes = (
{
closed = 1;
nodes = (
(423,216,l),
(232.699,406.301,l),
(353,372,l),
(373,447,l),
(126,513,l),
(77,464,l),
(143,217,l),
(218,237,l),
(184.583,356.417,l),
(374,167,l)
);
}
);
userData = {
com.schriftgestaltung.Glyphs.lastChange = "2021-06-17 15:24:38 +0000";
};
width = 500;
}
);
unicode = 8598;
},
{
glyphname = leftRightArrow;
layers = (
{
layerId = m01;
shapes = (
{
closed = 1;
nodes = (
(40,305,l),
(188,181,l),
(230,238,l),
(151.574,305,l),
(348.426,305,l),
(270,238,l),
(312,181,l),
(460,305,l),
(460,375,l),
(312,499,l),
(269,442,l),
(347.426,375,l),
(152.574,375,l),
(231,442,l),
(188,499,l),
(40,375,l)
);
}
);
userData = {
com.schriftgestaltung.Glyphs.lastChange = "2021-06-17 15:24:43 +0000";
};
width = 500;
}
);
unicode = 8596;
},
{
glyphname = upDownArrow;
layers = (
{
layerId = m01;
shapes = (
{
closed = 1;
nodes = (
(285,130,l),
(409,278,l),
(352,320,l),
(285,241.574,l),
(285,438.426,l),
(352,360,l),
(409,402,l),
(285,550,l),
(215,550,l),
(91,402,l),
(148,359,l),
(215,437.426,l),
(215,242.574,l),
(148,321,l),
(91,278,l),
(215,130,l)
);
}
);
userData = {
com.schriftgestaltung.Glyphs.lastChange = "2021-06-17 15:24:48 +0000";
};
width = 500;
}
);
unicode = 8597;
},
{
glyphname = dottedCircle;
layers = (
{
layerId = m01;
shapes = (
{
closed = 1;
nodes = (
(495,249,o),
(460,382,o),
(357,441,cs),
(255,500,o),
(122,464,o),
(63,362,cs),
(3,258,o),
(40,128,o),
(142,69,cs),
(245,9,o),
(376,43,o),
(436,147,cs)
);
},
{
closed = 1;
nodes = (
(361,68,o),
(245,38,o),
(154,90,cs),
(65,142,o),
(32,258,o),
(85,350,cs),
(137,440,o),
(255,471,o),
(344,419,cs),
(435,367,o),
(466,250,o),
(414,160,cs)
);
},
{
closed = 1;
nodes = (
(132,97,l),
(328,436,l),
(312,445,l),
(116,106,l)
);
},
{
closed = 1;
nodes = (
(83,145,l),
(257,447,l),
(242,456,l),
(68,154,l)
);
},
{
closed = 1;
nodes = (
(60,220,l),
(183,432,l),
(167,441,l),
(45,229,l)
);
},
{
closed = 1;
nodes = (
(383,406,l),
(367,415,l),
(171,76,l),
(187,67,l)
);
},
{
closed = 1;
nodes = (
(427,356,l),
(411,365,l),
(237,64,l),
(253,55,l)
);
},
{
closed = 1;
nodes = (
(454,278,l),
(438,287,l),
(316,75,l),
(332,66,l)
);
}
);
width = 500;
}
);
unicode = 9676;
},
{
glyphname = lozenge;
layers = (
{
layerId = m01;
shapes = (
{
closed = 1;
nodes = (
(100,339,l),
(250,109,l),
(398,340,l),
(248,571,l)
);
},
{
closed = 1;
nodes = (
(343,339,l),
(250,184,l),
(155,340,l),
(248,496,l)
);
}
);
userData = {
com.schriftgestaltung.Glyphs.lastChange = "2021-06-17 15:23:32 +0000";
};
width = 500;
}
);
unicode = 9674;
},
